<svg width="18" height="17" viewBox="0 0 18 17" fill="none" xmlns="http://www.w3.org/2000/svg">
<path d="M7.57341 1.39055C8.02244 0.00858116 9.97756 0.00857902 10.4266 1.39054L11.3574 4.25529C11.5582 4.87332 12.1341 5.29177 12.784 5.29177H15.7962C17.2492 5.29177 17.8534 7.15119 16.6778 8.00529L14.2409 9.7758C13.7152 10.1578 13.4952 10.8348 13.696 11.4529L14.6268 14.3176C15.0759 15.6996 13.4941 16.8487 12.3186 15.9946L9.88168 14.2241C9.35595 13.8422 8.64405 13.8422 8.11832 14.2241L5.68143 15.9946C4.50586 16.8487 2.92413 15.6996 3.37316 14.3176L4.30397 11.4529C4.50479 10.8348 4.2848 10.1578 3.75907 9.7758L1.32217 8.00529C0.1466 7.15119 0.750763 5.29177 2.20385 5.29177H5.21602C5.86586 5.29177 6.44179 4.87332 6.6426 4.25529L7.57341 1.39055Z" fill="#FFAA00"/>
</svg>
