<svg width="32" height="32" viewBox="0 0 32 32" fill="none" xmlns="http://www.w3.org/2000/svg">
<path d="M22.9333 29.3333C26.4679 29.3333 29.3333 26.4679 29.3333 22.9333C29.3333 19.3987 26.4679 16.5333 22.9333 16.5333C19.3987 16.5333 16.5333 19.3987 16.5333 22.9333C16.5333 26.4679 19.3987 29.3333 22.9333 29.3333Z" stroke="#292D32" stroke-width="1.5" stroke-miterlimit="10" stroke-linecap="round" stroke-linejoin="round"/>
<path d="M25.32 23.0133H20.5466" stroke="#292D32" stroke-width="1.5" stroke-miterlimit="10" stroke-linecap="round" stroke-linejoin="round"/>
<path d="M22.9333 20.68V25.4666" stroke="#292D32" stroke-width="1.5" stroke-miterlimit="10" stroke-linecap="round" stroke-linejoin="round"/>
<path d="M29.3333 11.5866C29.3333 14.2133 28.6533 16.5333 27.5866 18.5466C26.4133 17.3066 24.76 16.5333 22.9333 16.5333C19.4 16.5333 16.5333 19.4 16.5333 22.9333C16.5333 24.5733 17.16 26.0667 18.1733 27.2C17.68 27.4267 17.2266 27.6133 16.8266 27.7466C16.3733 27.9066 15.6266 27.9066 15.1733 27.7466C11.3066 26.4266 2.66663 20.92 2.66663 11.5866C2.66663 7.46664 5.98662 4.13327 10.08 4.13327C12.4933 4.13327 14.6533 5.30666 16 7.10666C17.3466 5.30666 19.5066 4.13327 21.92 4.13327C26.0133 4.13327 29.3333 7.46664 29.3333 11.5866Z" stroke="#292D32" stroke-width="1.5" stroke-linecap="round" stroke-linejoin="round"/>
</svg>
