<svg width="23" height="20" viewBox="0 0 23 20" fill="none" xmlns="http://www.w3.org/2000/svg">
<g clip-path="url(#clip0_1976_8085)">
<path d="M8.89982 3.88798C9.97745 3.88798 10.851 3.01763 10.851 1.94399C10.851 0.870354 9.97745 0 8.89982 0C7.8222 0 6.94861 0.870354 6.94861 1.94399C6.94861 3.01763 7.8222 3.88798 8.89982 3.88798Z" fill="white"/>
<path d="M14.2955 3.88798C15.3731 3.88798 16.2467 3.01763 16.2467 1.94399C16.2467 0.870354 15.3731 0 14.2955 0C13.2178 0 12.3442 0.870354 12.3442 1.94399C12.3442 3.01763 13.2178 3.88798 14.2955 3.88798Z" fill="white"/>
<path d="M12.4389 20.0031C12.3739 19.9996 12.3103 19.9823 12.2525 19.9523C12.1947 19.9223 12.144 19.8803 12.1038 19.8291C12.0668 19.782 12.0395 19.7281 12.0233 19.6704C12.0072 19.6128 12.0027 19.5525 12.01 19.4931C12.0172 19.4337 12.0362 19.3763 12.0657 19.3242C12.0953 19.2721 12.1348 19.2263 12.1821 19.1894L19.8641 13.1983C20.3216 12.843 20.7039 12.4008 20.9888 11.8973C21.2737 11.3939 21.4556 10.8391 21.524 10.2652C21.5961 9.6918 21.5533 9.10988 21.398 8.5531C21.2428 7.99632 20.9782 7.47576 20.6196 7.02156C20.2631 6.56556 19.8193 6.18458 19.314 5.9007C18.8086 5.61682 18.2517 5.43567 17.6756 5.36777C17.1006 5.29562 16.5169 5.33776 15.9584 5.49175C15.3998 5.64573 14.8775 5.9085 14.4215 6.26487C13.964 6.62012 13.5818 7.06218 13.2969 7.5655C13.012 8.06883 12.83 8.62342 12.7615 9.19724C12.6894 9.77074 12.7321 10.3528 12.8874 10.9097C13.0426 11.4667 13.3072 11.9873 13.6659 12.4416C13.7029 12.4888 13.7303 12.5427 13.7464 12.6003C13.7625 12.658 13.767 12.7182 13.7598 12.7776C13.7525 12.837 13.7335 12.8944 13.704 12.9465C13.6745 12.9986 13.6349 13.0444 13.5876 13.0813C13.5403 13.1182 13.4862 13.1455 13.4283 13.1615C13.3704 13.1775 13.31 13.1821 13.2503 13.1748C13.1907 13.1676 13.1331 13.1487 13.0808 13.1193C13.0285 13.0898 12.9826 13.0504 12.9455 13.0033C12.5128 12.4548 12.1936 11.8263 12.0062 11.1542C11.8189 10.482 11.7672 9.77947 11.8541 9.08724C11.9364 8.39448 12.156 7.72487 12.4999 7.11721C12.8438 6.50955 13.3054 5.97591 13.8577 5.54719C14.4082 5.11609 15.0391 4.79801 15.7137 4.61136C16.3884 4.4247 17.0935 4.37317 17.7883 4.45974C18.4837 4.54191 19.1557 4.76065 19.7656 5.10331C20.3755 5.44596 20.9112 5.90573 21.3416 6.456C21.7742 7.00433 22.0935 7.63269 22.2808 8.30474C22.4682 8.97679 22.5199 9.67918 22.433 10.3713C22.3507 11.0642 22.1312 11.7339 21.7872 12.3417C21.4433 12.9495 20.9818 13.4832 20.4294 13.9121L12.7474 19.9032C12.6602 19.9727 12.5505 20.0082 12.4389 20.0031Z" fill="white"/>
<path d="M12.6606 17.4493C12.5955 17.4458 12.5319 17.4285 12.4741 17.3985C12.4163 17.3685 12.3657 17.3265 12.3255 17.2753C12.2885 17.2282 12.2611 17.1743 12.245 17.1166C12.2289 17.059 12.2244 16.9987 12.2316 16.9393C12.2389 16.8799 12.2579 16.8225 12.2874 16.7704C12.3169 16.7183 12.3565 16.6725 12.4038 16.6356L18.7069 11.7211C19.2363 11.3075 19.5793 10.7015 19.6606 10.0361C19.7419 9.37081 19.5549 8.70051 19.1407 8.17242C18.936 7.91016 18.6811 7.69098 18.3908 7.52761C18.1005 7.36424 17.7805 7.25992 17.4494 7.22071C17.1186 7.17986 16.783 7.20474 16.4619 7.29392C16.1408 7.38309 15.8407 7.53479 15.5788 7.74025C15.3157 7.94397 15.0958 8.19777 14.9319 8.4869C14.7681 8.77604 14.6635 9.09473 14.6244 9.42447C14.583 9.7541 14.6077 10.0886 14.6971 10.4087C14.7864 10.7287 14.9387 11.0279 15.145 11.2889C15.2196 11.3841 15.2533 11.5049 15.2386 11.6248C15.2239 11.7448 15.1621 11.854 15.0668 11.9286C14.9712 12.0029 14.8499 12.0364 14.7295 12.0218C14.6092 12.0071 14.4996 11.9456 14.4247 11.8506C14.1446 11.4956 13.9378 11.0888 13.8163 10.6538C13.6948 10.2188 13.661 9.76413 13.7169 9.31603C13.7707 8.86745 13.9132 8.43394 14.1361 8.04056C14.3591 7.64717 14.6581 7.3017 15.0159 7.02412C15.3723 6.74467 15.7807 6.53839 16.2177 6.41721C16.6546 6.29603 17.1113 6.26236 17.5614 6.31814C18.0117 6.37158 18.4468 6.51348 18.8417 6.73563C19.2366 6.95777 19.5833 7.25575 19.8618 7.61231C20.4236 8.3309 20.6768 9.24201 20.5658 10.1462C20.4549 11.0503 19.9889 11.8738 19.2698 12.4364L12.9668 17.351C12.88 17.4195 12.7712 17.4545 12.6606 17.4493Z" fill="white"/>
<path d="M12.4804 15.3911C12.4151 15.3877 12.3513 15.3704 12.2933 15.3402C12.2354 15.3101 12.1846 15.2678 12.1445 15.2163C12.1075 15.1693 12.0802 15.1154 12.0641 15.0578C12.048 15.0002 12.0435 14.9401 12.0507 14.8807C12.058 14.8214 12.0769 14.764 12.1065 14.712C12.136 14.66 12.1755 14.6142 12.2228 14.5774L17.6591 10.3376C17.7421 10.2733 17.8114 10.1933 17.863 10.1021C17.9146 10.0109 17.9475 9.91037 17.9598 9.80639C17.9729 9.70263 17.9651 9.59731 17.9368 9.49659C17.9086 9.39587 17.8605 9.30176 17.7954 9.21976C17.731 9.13715 17.6508 9.06813 17.5594 9.0167C17.468 8.96527 17.3672 8.93247 17.2629 8.92021C17.1587 8.90709 17.0529 8.91475 16.9517 8.94274C16.8505 8.97073 16.7559 9.01849 16.6733 9.08325C16.5065 9.21342 16.3983 9.40422 16.3724 9.61379C16.3466 9.82336 16.4052 10.0346 16.5355 10.2011C16.5726 10.2482 16.5999 10.3022 16.616 10.3598C16.6321 10.4175 16.6367 10.4777 16.6294 10.5371C16.6221 10.5965 16.6032 10.6539 16.5736 10.706C16.5441 10.7581 16.5045 10.8039 16.4572 10.8408C16.4099 10.8777 16.3558 10.9049 16.298 10.921C16.2401 10.937 16.1796 10.9416 16.12 10.9343C16.0604 10.9271 16.0028 10.9082 15.9505 10.8788C15.8982 10.8493 15.8522 10.8099 15.8152 10.7628C15.5356 10.406 15.4094 9.95324 15.4643 9.50387C15.5191 9.05449 15.7507 8.64514 16.108 8.36556C16.2851 8.22703 16.4879 8.12477 16.7048 8.06466C16.9217 8.00454 17.1484 7.98777 17.3718 8.0153C17.5954 8.04174 17.8116 8.11218 18.0077 8.22253C18.2038 8.33287 18.3759 8.48093 18.5142 8.6581C18.6536 8.83431 18.7565 9.03632 18.817 9.25245C18.8775 9.46857 18.8943 9.69451 18.8665 9.91717C18.8396 10.1399 18.7688 10.3551 18.6581 10.5505C18.5473 10.7458 18.3989 10.9174 18.2213 11.0553L13.247 14.9324L12.7874 15.2904C12.7008 15.3602 12.5916 15.396 12.4804 15.3911Z" fill="white"/>
<path d="M10.7563 20.0031C10.8216 19.9997 10.8853 19.9824 10.9432 19.9524C11.0012 19.9224 11.052 19.8804 11.0922 19.8291C11.1293 19.782 11.1566 19.7281 11.1727 19.6704C11.1888 19.6128 11.1934 19.5525 11.1861 19.4931C11.1788 19.4337 11.1599 19.3763 11.1303 19.3242C11.1008 19.2721 11.0612 19.2263 11.0139 19.1894L3.33123 13.1983C2.87368 12.8431 2.49143 12.4009 2.20663 11.8974C1.92183 11.3939 1.74013 10.8391 1.67207 10.2652C1.59999 9.69181 1.64281 9.10988 1.79805 8.5531C1.95328 7.99633 2.21784 7.47576 2.57642 7.02157C2.93284 6.56566 3.37651 6.18473 3.88173 5.90085C4.38695 5.61697 4.94369 5.43578 5.51969 5.36777C6.09532 5.29612 6.67949 5.33885 7.23844 5.4935C7.79739 5.64815 8.32004 5.91166 8.77615 6.26878C9.23361 6.62395 9.6158 7.066 9.9006 7.56935C10.1854 8.0727 10.3671 8.62734 10.4353 9.20115C10.5076 9.7746 10.465 10.3566 10.3099 10.9136C10.1548 11.4705 9.89027 11.9912 9.53173 12.4455C9.4947 12.4927 9.46735 12.5466 9.45125 12.6042C9.43514 12.6619 9.4306 12.7221 9.43787 12.7815C9.44514 12.841 9.46409 12.8983 9.49363 12.9504C9.52317 13.0026 9.56272 13.0484 9.61003 13.0852C9.65732 13.1221 9.71145 13.1494 9.76932 13.1654C9.82718 13.1815 9.88766 13.186 9.94728 13.1787C10.0069 13.1715 10.0645 13.1526 10.1168 13.1232C10.1691 13.0938 10.2151 13.0543 10.2521 13.0072C10.6857 12.4592 11.0059 11.8308 11.1941 11.1586C11.3822 10.4864 11.4346 9.78369 11.3483 9.09115C11.2657 8.39843 11.0461 7.72889 10.7022 7.12125C10.3583 6.51361 9.89684 5.97994 9.34459 5.55109C8.79409 5.12 8.16325 4.80192 7.48858 4.61526C6.8139 4.42861 6.10878 4.37707 5.41398 4.46364C4.71864 4.54573 4.04655 4.76444 3.43663 5.1071C2.82671 5.44976 2.29109 5.90957 1.86077 6.4599C1.42781 7.00809 1.10832 7.63642 0.920829 8.30849C0.733335 8.98057 0.681559 9.68303 0.768498 10.3752C0.851044 11.068 1.07063 11.7377 1.41455 12.3454C1.75847 12.9532 2.2199 13.487 2.77217 13.916L10.4549 19.9071C10.5408 19.9737 10.6476 20.0077 10.7563 20.0031Z" fill="white"/>
<path d="M10.5348 17.4489C10.6 17.4455 10.6637 17.4283 10.7217 17.3982C10.7796 17.3682 10.8304 17.3262 10.8707 17.2749C10.9077 17.2278 10.9351 17.1739 10.9512 17.1162C10.9673 17.0586 10.9718 16.9983 10.9645 16.9389C10.9573 16.8795 10.9383 16.8221 10.9088 16.77C10.8792 16.7179 10.8397 16.6721 10.7924 16.6353L4.49009 11.7207C3.96076 11.3071 3.61773 10.7012 3.53626 10.0359C3.45479 9.37062 3.64154 8.70031 4.05553 8.17205C4.26033 7.90994 4.51524 7.69088 4.80554 7.52752C5.09583 7.36417 5.41575 7.25976 5.74679 7.22033C6.0777 7.17942 6.41346 7.20427 6.73467 7.29345C7.05588 7.38263 7.35615 7.53436 7.61814 7.73987C7.88105 7.94384 8.10077 8.1977 8.2646 8.48679C8.42843 8.77587 8.53311 9.09445 8.5726 9.42409C8.61382 9.75373 8.58902 10.0882 8.49965 10.4083C8.41027 10.7283 8.2581 11.0275 8.05192 11.2885C8.01489 11.3356 7.98754 11.3896 7.97143 11.4472C7.95533 11.5049 7.95078 11.5651 7.95805 11.6245C7.96532 11.6839 7.98427 11.7413 8.01381 11.7934C8.04335 11.8455 8.08291 11.8913 8.13021 11.9282C8.22581 12.0025 8.34707 12.036 8.46742 12.0214C8.58777 12.0068 8.6974 11.9452 8.77226 11.8502C9.05207 11.4948 9.25841 11.0877 9.37937 10.6524C9.50032 10.2171 9.53349 9.76224 9.47696 9.3141C9.42349 8.86543 9.28113 8.4318 9.05815 8.03837C8.83516 7.64494 8.53599 7.29953 8.17798 7.02219C7.82174 6.74272 7.4134 6.53643 6.97659 6.41524C6.53979 6.29406 6.0832 6.2604 5.63326 6.31621C5.18285 6.36963 4.74755 6.51152 4.35255 6.73366C3.95755 6.95581 3.61069 7.25379 3.33204 7.61038C2.77032 8.32975 2.51778 9.24165 2.62977 10.1462C2.74175 11.0508 3.20913 11.8742 3.92947 12.436L10.2318 17.3506C10.3178 17.4183 10.4252 17.4532 10.5348 17.4489Z" fill="white"/>
<path d="M10.7156 15.3911C10.7808 15.3875 10.8446 15.3701 10.9025 15.34C10.9604 15.3098 11.0112 15.2677 11.0515 15.2164C11.126 15.1213 11.1596 15.0006 11.1449 14.8808C11.1303 14.761 11.0685 14.6519 10.9732 14.5775L5.53687 10.3377C5.45393 10.2734 5.38464 10.1933 5.33302 10.1021C5.28141 10.0109 5.24849 9.9104 5.2362 9.80642C5.22314 9.70272 5.23088 9.59746 5.25897 9.49676C5.28706 9.39606 5.33495 9.30192 5.39985 9.2198C5.46429 9.13725 5.54453 9.06827 5.63592 9.01685C5.72732 8.96543 5.82805 8.93259 5.93228 8.92024C6.0365 8.90704 6.14231 8.91465 6.24354 8.94265C6.34477 8.97064 6.43939 9.01845 6.52187 9.08328C6.68862 9.21356 6.79669 9.40442 6.82238 9.61399C6.84807 9.82356 6.78927 10.0347 6.65889 10.2011C6.62186 10.2483 6.59452 10.3022 6.57841 10.3598C6.5623 10.4175 6.55776 10.4777 6.56503 10.5372C6.5723 10.5966 6.59125 10.6539 6.62079 10.7061C6.65033 10.7582 6.68988 10.804 6.73719 10.8408C6.78442 10.8777 6.83849 10.9049 6.89629 10.921C6.95409 10.937 7.0145 10.9415 7.07406 10.9343C7.13362 10.927 7.19116 10.9082 7.24339 10.8787C7.29563 10.8493 7.34152 10.8099 7.37846 10.7628C7.65809 10.406 7.78429 9.95328 7.7294 9.5039C7.6745 9.05452 7.44299 8.64517 7.08562 8.3656C6.90859 8.22703 6.70578 8.12474 6.48888 8.06463C6.27199 8.00451 6.0453 7.98776 5.82188 8.01534C5.59827 8.04195 5.38218 8.11245 5.18609 8.22279C4.99001 8.33312 4.81782 8.48109 4.67949 8.65813C4.54023 8.8344 4.43744 9.03645 4.37709 9.25257C4.31675 9.46869 4.30004 9.6946 4.32793 9.9172C4.35464 10.14 4.42541 10.3553 4.53615 10.5506C4.6469 10.746 4.79541 10.9175 4.97312 11.0554L9.94824 14.9324L10.4079 15.2905C10.4946 15.3604 10.6041 15.3962 10.7156 15.3911Z" fill="white"/>
</g>
<defs>
<clipPath id="clip0_1976_8085">
<rect width="21.7476" height="20" fill="white" transform="translate(0.723877)"/>
</clipPath>
</defs>
</svg>
