<svg width="22" height="22" viewBox="0 0 22 22" fill="none" xmlns="http://www.w3.org/2000/svg">
<rect width="22" height="22" fill="#F5F5F5"/>
<rect width="1728" height="1731" transform="translate(-1181 -864)" fill="white"/>
<g filter="url(#filter0_d_1086_7994)">
<rect x="-1081" y="-461" width="1128" height="526" rx="20" fill="white" shape-rendering="crispEdges"/>
<rect x="-601" y="-437" width="624" height="478" rx="20" fill="white"/>
<path d="M20.97 14.0002V8.00015C20.97 3.00015 18.97 1.00015 13.97 1.00015H7.96997C2.96997 1.00015 0.969971 3.00015 0.969971 8.00015V14.0002C0.969971 19.0002 2.96997 21.0002 7.96997 21.0002H13.97C18.97 21.0002 20.97 19.0002 20.97 14.0002Z" stroke="#292D32" stroke-width="1.5" stroke-linecap="round" stroke-linejoin="round"/>
<path d="M18.72 2.25015L2.27002 18.7002" stroke="#292D32" stroke-width="1.5" stroke-linecap="round" stroke-linejoin="round"/>
<path d="M15.0601 17.0002V12.0002" stroke="#292D32" stroke-width="1.5" stroke-miterlimit="10" stroke-linecap="round" stroke-linejoin="round"/>
<path d="M17.5 14.5002H12.5" stroke="#292D32" stroke-width="1.5" stroke-miterlimit="10" stroke-linecap="round" stroke-linejoin="round"/>
<path d="M9.5 6.50015H4.5" stroke="#292D32" stroke-width="1.5" stroke-miterlimit="10" stroke-linecap="round" stroke-linejoin="round"/>
</g>
<defs>
<filter id="filter0_d_1086_7994" x="-1121" y="-500" width="1208" height="606" filterUnits="userSpaceOnUse" color-interpolation-filters="sRGB">
<feFlood flood-opacity="0" result="BackgroundImageFix"/>
<feColorMatrix in="SourceAlpha" type="matrix" values="0 0 0 0 0 0 0 0 0 0 0 0 0 0 0 0 0 0 127 0" result="hardAlpha"/>
<feOffset dy="1"/>
<feGaussianBlur stdDeviation="20"/>
<feComposite in2="hardAlpha" operator="out"/>
<feColorMatrix type="matrix" values="0 0 0 0 0 0 0 0 0 0 0 0 0 0 0 0 0 0 0.12 0"/>
<feBlend mode="normal" in2="BackgroundImageFix" result="effect1_dropShadow_1086_7994"/>
<feBlend mode="normal" in="SourceGraphic" in2="effect1_dropShadow_1086_7994" result="shape"/>
</filter>
</defs>
</svg>
