<svg width="63" height="65" viewBox="0 0 63 65" fill="none" xmlns="http://www.w3.org/2000/svg">
<path d="M52.7172 47.6677V15.0411L0.360023 17.2927V49.9193C0.355301 50.3088 0.455438 50.6925 0.649987 51.03C0.844537 51.3675 1.12632 51.6465 1.46577 51.8376L22.2088 63.8278C22.9339 64.2464 23.7563 64.4668 24.5935 64.4668C25.4307 64.4668 26.2532 64.2464 26.9782 63.8278L51.6114 49.6127C51.953 49.4172 52.2357 49.1336 52.4303 48.7915C52.6248 48.4493 52.7239 48.0612 52.7172 47.6677Z" fill="url(#paint0_linear_1205_25650)"/>
<path d="M1.46532 15.3741L26.0985 1.14587C26.8235 0.727265 27.646 0.506744 28.4832 0.506744C29.3204 0.506744 30.1429 0.727265 30.8679 1.14587L51.611 13.1361C51.9484 13.3316 52.2285 13.6123 52.4232 13.9502C52.6179 14.288 52.7205 14.6711 52.7205 15.0611C52.7205 15.4511 52.6179 15.8341 52.4232 16.172C52.2285 16.5099 51.9484 16.7906 51.611 16.9861L26.9778 31.2012C26.2527 31.6198 25.4303 31.8402 24.593 31.8402C23.7558 31.8402 22.9334 31.6198 22.2084 31.2012L1.46532 19.211C1.12762 19.0173 0.847029 18.738 0.651897 18.4011C0.456764 18.0643 0.354004 17.6819 0.354004 17.2927C0.354004 16.9034 0.456764 16.5209 0.651897 16.184C0.847029 15.8472 1.12762 15.5678 1.46532 15.3741Z" fill="url(#paint1_linear_1205_25650)"/>
<path d="M9.45923 10.7246L35.9176 25.9921L42.9385 21.9954L16.4668 6.72791L9.45923 10.7246Z" fill="#DEA861"/>
<path d="M13.6427 8.33984L40.101 23.6075L38.7688 24.4068L12.3104 9.12598L13.6427 8.33984Z" fill="#CC8241"/>
<path d="M35.9043 26.0321V31.8273L42.9252 27.8306V22.0353L35.9043 26.0321Z" fill="#CC8241"/>
<path d="M62.0694 25.2727C61.956 25.184 61.8303 25.1122 61.6964 25.0595L56.6472 22.1951C56.4561 22.0494 56.2354 21.9471 56.0006 21.8954C55.7659 21.8437 55.5227 21.8439 55.288 21.8959C55.0533 21.9479 54.8328 22.0506 54.6419 22.1966C54.4509 22.3426 54.2942 22.5285 54.1825 22.7414L44.7769 40.8599H44.6836C44.3912 40.6425 44.0616 40.48 43.7111 40.3803L39.2614 37.7158C39.0284 37.5365 38.7673 37.3968 38.4887 37.3027C37.845 37.0587 37.1345 37.0571 36.4896 37.298C35.8447 37.539 35.3094 38.006 34.9834 38.6124C34.6574 39.2187 34.5629 39.923 34.7176 40.5938C34.8723 41.2647 35.2656 41.8564 35.8242 42.2588L44.3772 48.7335L49.7994 51.7976L62.5224 27.3509C62.7037 27.0066 62.7578 26.6093 62.6749 26.2291C62.592 25.8489 62.3776 25.5103 62.0694 25.2727Z" fill="url(#paint2_linear_1205_25650)"/>
<path d="M44.6836 40.7934C44.3912 40.576 44.0616 40.4135 43.7111 40.3138L39.2614 37.6494C39.0284 37.47 38.7673 37.3305 38.4887 37.2364C37.845 36.9924 37.1345 36.9906 36.4896 37.2316C35.8447 37.4725 35.3094 37.9397 34.9834 38.5461C34.6574 39.1524 34.5629 39.8565 34.7176 40.5274C34.8723 41.1982 35.2656 41.79 35.8242 42.1924L44.3772 48.667L49.7994 51.7313L44.6836 40.7934Z" fill="url(#paint3_linear_1205_25650)"/>
<path d="M49.8124 51.7977L41.246 45.323C40.6454 44.8672 40.2504 44.1915 40.1479 43.4445C40.0455 42.6974 40.2441 41.9403 40.6999 41.3396C41.1557 40.7389 41.8314 40.344 42.5784 40.2415C43.3254 40.1391 44.0826 40.3375 44.6833 40.7933L49.8124 44.6702L59.6044 25.8189C59.8076 25.4303 60.1568 25.1383 60.5753 25.0071C60.9938 24.8759 61.4472 24.9165 61.8359 25.1196C62.2246 25.3228 62.5166 25.672 62.6478 26.0905C62.7789 26.509 62.7385 26.9624 62.5353 27.351L49.8124 51.7977Z" fill="#06DAAE"/>
<defs>
<linearGradient id="paint0_linear_1205_25650" x1="20.4103" y1="39.7542" x2="27.6044" y2="39.7542" gradientUnits="userSpaceOnUse">
<stop stop-color="#CC8241"/>
<stop offset="1" stop-color="#DEA861"/>
</linearGradient>
<linearGradient id="paint1_linear_1205_25650" x1="11.9634" y1="7.75366" x2="38.9014" y2="23.3009" gradientUnits="userSpaceOnUse">
<stop stop-color="#DEA861"/>
<stop offset="1" stop-color="#EBCBA0"/>
</linearGradient>
<linearGradient id="paint2_linear_1205_25650" x1="54.2225" y1="24.793" x2="55.8478" y2="21.9553" gradientUnits="userSpaceOnUse">
<stop stop-color="#236568"/>
<stop offset="1" stop-color="#2F878A"/>
</linearGradient>
<linearGradient id="paint3_linear_1205_25650" x1="42.9118" y1="44.3773" x2="44.2307" y2="42.0991" gradientUnits="userSpaceOnUse">
<stop stop-color="#236568"/>
<stop offset="1" stop-color="#2F878A"/>
</linearGradient>
</defs>
</svg>
