<svg width="85" height="65" viewBox="0 0 85 65" fill="none" xmlns="http://www.w3.org/2000/svg">
<path d="M82.3563 20.0629C81.9133 19.3998 81.3205 18.8503 80.6257 18.4589C79.9309 18.0675 79.1537 17.8452 78.357 17.81C78.0326 17.7604 77.7009 17.7986 77.3961 17.9205C77.0914 18.0424 76.8248 18.2436 76.6241 18.5032L75.1177 20.9294C74.9853 21.1413 74.915 21.3861 74.915 21.6359C74.915 21.8858 74.9853 22.1306 75.1177 22.3425C75.5583 23.0079 76.1506 23.5591 76.8459 23.9507C77.5411 24.3424 78.3195 24.5634 79.1169 24.5954C79.4561 24.6511 79.8041 24.6092 80.1203 24.4746C80.4366 24.3401 80.7081 24.1185 80.9032 23.8355L82.3296 21.5292C82.477 21.3142 82.558 21.0607 82.5627 20.8001C82.5675 20.5394 82.4957 20.2832 82.3563 20.0629Z" fill="url(#paint0_linear_1205_25647)"/>
<path d="M67.5323 47.3643V14.7306L15.1291 16.9835V49.6305C15.1271 50.0198 15.2285 50.4026 15.4229 50.7399C15.6173 51.0771 15.8977 51.3567 16.2355 51.5502L36.9915 63.5479C37.717 63.9667 38.54 64.1872 39.3777 64.1872C40.2155 64.1872 41.0385 63.9667 41.7639 63.5479L66.4125 49.3106C66.7577 49.1178 67.0442 48.835 67.2414 48.4922C67.4386 48.1495 67.5391 47.7596 67.5323 47.3643Z" fill="url(#paint1_linear_1205_25647)"/>
<path d="M16.2488 15.0372L40.8707 0.813252C41.5962 0.394385 42.4192 0.173889 43.2569 0.173889C44.0947 0.173889 44.9176 0.394385 45.6431 0.813252L66.3991 12.8109C66.737 13.0047 67.0178 13.2843 67.2131 13.6213C67.4083 13.9584 67.5111 14.341 67.5111 14.7306C67.5111 15.1201 67.4083 15.5028 67.2131 15.8398C67.0178 16.1769 66.737 16.4564 66.3991 16.6502L41.7505 30.8875C41.025 31.3063 40.2021 31.5268 39.3643 31.5268C38.5266 31.5268 37.7036 31.3063 36.9781 30.8875L16.2221 18.8898C15.8858 18.6918 15.6074 18.409 15.4149 18.0695C15.2224 17.7301 15.1225 17.346 15.1252 16.9558C15.1279 16.5656 15.2331 16.1829 15.4303 15.8462C15.6275 15.5094 15.9098 15.2304 16.2488 15.0372Z" fill="url(#paint2_linear_1205_25647)"/>
<path d="M24.2471 10.4248L50.722 25.7151L57.7473 21.7159L31.2724 6.37216L24.2471 10.4248Z" fill="#DEA861"/>
<path d="M28.4461 8.06519L54.921 23.3555L53.588 24.1554L27.113 8.865L28.4461 8.06519Z" fill="#CC8241"/>
<path d="M50.7224 25.7151V31.5141L57.7477 27.5148V21.6626L50.7224 25.7151Z" fill="#CC8241"/>
<path d="M2.7184 15.6504L18.8086 24.982C19.2136 25.2157 19.5499 25.5518 19.7838 25.9566C20.0178 26.3614 20.1412 26.8206 20.1417 27.2882C20.1407 27.4766 20.0904 27.6614 19.9958 27.8243C19.9013 27.9873 19.7657 28.1227 19.6026 28.217C19.4396 28.3114 19.2546 28.3614 19.0662 28.3622C18.8778 28.3629 18.6925 28.3144 18.5287 28.2213L2.42512 18.8898C2.02021 18.656 1.6839 18.3199 1.44992 17.9151C1.21594 17.5103 1.09252 17.0511 1.09204 16.5836C1.09171 16.3932 1.1417 16.2061 1.23695 16.0413C1.33221 15.8765 1.46935 15.7398 1.63446 15.645C1.79957 15.5503 1.98676 15.5009 2.17712 15.5018C2.36748 15.5028 2.55423 15.5541 2.7184 15.6504Z" fill="url(#paint3_linear_1205_25647)"/>
<path d="M8.59718 25.9018L24.7007 35.2333C25.1056 35.4671 25.4419 35.8032 25.6759 36.208C25.9099 36.6128 26.0333 37.072 26.0338 37.5395C26.0328 37.7279 25.9825 37.9128 25.888 38.0757C25.7934 38.2387 25.6579 38.374 25.4948 38.4684C25.3317 38.5627 25.1467 38.6128 24.9583 38.6135C24.7699 38.6143 24.5846 38.5657 24.4208 38.4727L8.31721 29.1411C7.9123 28.9074 7.57599 28.5713 7.34201 28.1665C7.10803 27.7617 6.98461 27.3025 6.98413 26.8349C6.98514 26.6465 7.03545 26.4617 7.13002 26.2988C7.22458 26.1358 7.36013 26.0004 7.52321 25.9061C7.68629 25.8117 7.87121 25.7617 8.05961 25.7609C8.24801 25.7602 8.43336 25.8087 8.59718 25.9018Z" fill="url(#paint4_linear_1205_25647)"/>
<path d="M80.1029 22.8756L74.624 19.7296C72.4777 18.5831 69.7049 18.7431 66.6255 20.4894C59.7469 24.4887 54.1613 35.1533 54.1613 44.2982C54.1613 49.3372 55.8543 52.8832 58.5071 54.3896L63.5061 57.2823C65.7057 58.6154 68.5852 58.4955 71.7445 56.6692C78.6232 52.6699 84.1955 42.0053 84.1955 32.8737C84.2621 27.928 82.6624 24.4353 80.1029 22.8756Z" fill="url(#paint5_linear_1205_25647)"/>
<path d="M81.7828 44.3249C85.9287 34.6068 84.8356 24.8353 79.33 22.4891C73.8243 20.1429 65.9992 26.1284 61.88 35.8199C57.7608 45.5113 58.8406 55.3094 64.3328 57.6557C69.8251 60.0019 77.6503 54.043 81.7828 44.3249Z" fill="#A996EB"/>
<path d="M79.0233 43.1518C82.0094 36.1265 81.2095 29.0745 77.2503 27.3815C73.2911 25.6884 67.6388 30.0476 64.6527 37.0196C61.6666 43.9916 62.4532 51.0969 66.4257 52.7899C70.3983 54.4829 76.0372 50.1638 79.0233 43.1518Z" fill="#F2EFFA"/>
<path d="M79.5301 29.3944C77.9437 26.8483 75.091 26.1951 71.8383 28.0614V40.0591L79.5301 29.3944Z" fill="#FF4757"/>
<path d="M73.5577 39.0459C73.5577 37.7129 72.7712 37.1796 71.8114 37.7129C71.2812 38.0943 70.8473 38.5941 70.5441 39.1727C70.2409 39.7512 70.0769 40.3925 70.0651 41.0455C70.0651 42.3786 70.8516 42.9118 71.8114 42.3786C72.3416 41.9972 72.7756 41.4974 73.0787 40.9189C73.3819 40.3403 73.5459 39.699 73.5577 39.0459Z" fill="#2D5CD7"/>
<path d="M71.1316 42.1386V31.1407C71.1118 31.0421 71.1141 30.9402 71.1384 30.8425C71.1627 30.7449 71.2084 30.6539 71.2722 30.576C71.3359 30.4981 71.4162 30.4354 71.5072 30.3924C71.5981 30.3493 71.6975 30.3269 71.7982 30.3269C71.8988 30.3269 71.9982 30.3493 72.0891 30.3924C72.1801 30.4354 72.2604 30.4981 72.3241 30.576C72.3879 30.6539 72.4336 30.7449 72.4579 30.8425C72.4822 30.9402 72.4845 31.0421 72.4647 31.1407V37.9661L76.1307 32.9004C76.1822 32.8275 76.2479 32.7656 76.3239 32.7186C76.3999 32.6715 76.4845 32.6402 76.5728 32.6265C76.6611 32.6129 76.7512 32.6171 76.8379 32.6389C76.9245 32.6608 77.0059 32.6999 77.0771 32.7538C77.2236 32.8583 77.3227 33.0166 77.3527 33.194C77.3826 33.3714 77.3411 33.5534 77.2371 33.7002L71.1316 42.1386Z" fill="#2D5CD7"/>
<path d="M72.2112 20.3028V17.8233L67.4387 18.1433V20.7294C67.4417 20.9152 67.4972 21.0963 67.5986 21.252C67.7 21.4076 67.8432 21.5314 68.0119 21.6092C68.5484 21.8516 69.1343 21.9646 69.7224 21.9392C70.3105 21.9137 70.8845 21.7505 71.398 21.4626C71.9712 21.1293 72.2511 20.7028 72.2112 20.3028Z" fill="#2D5CD7"/>
<path d="M73.5442 16.3036V13.1709L66.1056 13.6775V16.9701C66.1195 17.2542 66.2115 17.529 66.3714 17.7642C66.5313 17.9994 66.753 18.1859 67.0121 18.3032C67.843 18.6818 68.7513 18.8597 69.6637 18.8226C70.576 18.7856 71.4669 18.5347 72.2644 18.09C73.1576 17.5967 73.5975 16.9301 73.5442 16.3036Z" fill="url(#paint6_linear_1205_25647)"/>
<path d="M70.1051 15.4638C72.1581 15.2105 73.7045 14.1307 73.5712 12.9176C73.4378 11.7045 71.6515 11.0113 69.5719 11.2646C67.4923 11.5179 65.9726 12.5977 66.1059 13.8108C66.2392 15.0239 68.0522 15.717 70.1051 15.4638Z" fill="#FF7A85"/>
<path d="M63.1065 25.9018L60.8669 24.3287L57.4542 29.8477L59.7871 31.514C59.999 31.6465 60.2438 31.7166 60.4936 31.7166C60.7435 31.7166 60.9883 31.6465 61.2002 31.514C61.8853 31.1135 62.4681 30.5595 62.903 29.8956C63.3379 29.2318 63.6128 28.4761 63.7064 27.688C63.7782 27.3639 63.7603 27.0263 63.6546 26.7116C63.5489 26.3968 63.3594 26.1169 63.1065 25.9018Z" fill="url(#paint7_linear_1205_25647)"/>
<path d="M60.7466 27.9547C61.5998 26.3683 61.5731 24.702 60.68 24.2087C59.7868 23.7155 58.3738 24.6086 57.5073 26.195C56.6408 27.7814 56.6808 29.4478 57.5073 29.9277C58.3338 30.4076 59.8801 29.5277 60.7466 27.9547Z" fill="#D6D07B"/>
<defs>
<linearGradient id="paint0_linear_1205_25647" x1="74.9444" y1="21.2227" x2="82.5829" y2="21.2227" gradientUnits="userSpaceOnUse">
<stop stop-color="#236568"/>
<stop offset="1" stop-color="#2F878A"/>
</linearGradient>
<linearGradient id="paint1_linear_1205_25647" x1="35.2052" y1="39.4458" x2="42.4038" y2="39.4458" gradientUnits="userSpaceOnUse">
<stop stop-color="#CC8241"/>
<stop offset="1" stop-color="#DEA861"/>
</linearGradient>
<linearGradient id="paint2_linear_1205_25647" x1="26.7534" y1="7.42532" x2="53.7082" y2="22.9823" gradientUnits="userSpaceOnUse">
<stop stop-color="#DEA861"/>
<stop offset="1" stop-color="#EBCBA0"/>
</linearGradient>
<linearGradient id="paint3_linear_1205_25647" x1="21.5814" y1="28.6612" x2="2.45177" y2="16.8902" gradientUnits="userSpaceOnUse">
<stop stop-color="#43386B"/>
<stop offset="1" stop-color="#7662BD"/>
</linearGradient>
<linearGradient id="paint4_linear_1205_25647" x1="27.4735" y1="38.9126" x2="8.34389" y2="27.1415" gradientUnits="userSpaceOnUse">
<stop stop-color="#43386B"/>
<stop offset="1" stop-color="#7662BD"/>
</linearGradient>
<linearGradient id="paint5_linear_1205_25647" x1="70.0915" y1="37.1129" x2="75.2105" y2="28.248" gradientUnits="userSpaceOnUse">
<stop stop-color="#43386B"/>
<stop offset="1" stop-color="#7662BD"/>
</linearGradient>
<linearGradient id="paint6_linear_1205_25647" x1="66.1056" y1="16.0237" x2="74.4907" y2="16.0237" gradientUnits="userSpaceOnUse">
<stop stop-color="#AB2C37"/>
<stop offset="1" stop-color="#FF7A85"/>
</linearGradient>
<linearGradient id="paint7_linear_1205_25647" x1="59.1339" y1="31.0341" x2="63.3731" y2="25.0886" gradientUnits="userSpaceOnUse">
<stop stop-color="#D6D07B"/>
<stop offset="1" stop-color="#827C34"/>
</linearGradient>
</defs>
</svg>
