<svg width="69" height="65" viewBox="0 0 69 65" fill="none" xmlns="http://www.w3.org/2000/svg">
<path d="M53.238 47.5376V14.8905L0.848155 17.1301V49.7771C0.843854 50.1686 0.944119 50.5542 1.13863 50.894C1.33313 51.2338 1.61482 51.5155 1.95459 51.7101L22.7106 63.7078C23.4361 64.1267 24.259 64.3472 25.0968 64.3472C25.9345 64.3472 26.7575 64.1267 27.483 63.7078L52.1316 49.4705C52.4733 49.2782 52.7565 48.9969 52.9513 48.6566C53.1461 48.3163 53.2452 47.9296 53.238 47.5376Z" fill="url(#paint0_linear_1205_25644)"/>
<path d="M1.95434 15.2105L26.6029 0.986561C27.3284 0.567694 28.1514 0.347198 28.9891 0.347198C29.8269 0.347198 30.6498 0.567694 31.3753 0.986561L52.1314 12.9842C52.4693 13.178 52.75 13.4576 52.9453 13.7946C53.1405 14.1317 53.2434 14.5143 53.2434 14.9039C53.2434 15.2934 53.1405 15.6761 52.9453 16.0131C52.75 16.3502 52.4693 16.6297 52.1314 16.8235L27.4827 31.0608C26.7572 31.4796 25.9343 31.7001 25.0965 31.7001C24.2588 31.7001 23.4358 31.4796 22.7103 31.0608L1.95434 19.0631C1.61669 18.8675 1.3364 18.5865 1.14154 18.2485C0.946691 17.9104 0.844116 17.527 0.844116 17.1368C0.844116 16.7466 0.946691 16.3632 1.14154 16.0251C1.3364 15.687 1.61669 15.4061 1.95434 15.2105V15.2105Z" fill="url(#paint1_linear_1205_25644)"/>
<path d="M9.953 10.5981L36.4279 25.8884L43.4532 21.8892L16.9783 6.61209L9.953 10.5981Z" fill="#DEA861"/>
<path d="M14.1391 8.17188L40.614 23.4622L39.2809 24.2488L12.806 8.97169L14.1391 8.17188Z" fill="#CC8241"/>
<path d="M36.4148 25.8884V31.6873L43.4401 27.6214V21.8225L36.4148 25.8884Z" fill="#CC8241"/>
<path d="M64.1021 26.5016L58.6365 23.3555C56.4769 22.2091 53.7041 22.3824 50.6381 24.1154C43.7594 28.1146 38.1871 38.7793 38.1871 47.9242C38.1871 52.9765 39.8668 56.5091 42.533 58.0155L47.532 60.895C49.7316 62.2281 52.611 62.1214 55.7571 60.2951C62.6491 56.2959 68.2214 45.6313 68.2214 36.4864C68.2613 31.5673 66.6483 28.0613 64.1021 26.5016Z" fill="url(#paint2_linear_1205_25644)"/>
<path d="M65.7824 47.9508C69.9149 38.2327 68.8218 28.4612 63.3162 26.115C57.8105 23.7688 49.9854 29.7543 45.8662 39.4458C41.747 49.1373 42.8268 58.9354 48.319 61.2816C53.8113 63.6278 61.6365 57.669 65.7824 47.9508Z" fill="#27DEB2"/>
<path d="M63.5557 43.1251L60.3163 41.2188C59.5742 40.8473 58.7265 40.7438 57.9168 40.9256C58.1695 40.6346 58.4719 40.3908 58.8099 40.2056C60.2178 39.5268 61.8047 39.3121 63.3424 39.5925L64.6754 34.9134L61.3961 32.9937C61.0302 32.8976 60.6545 32.844 60.2763 32.8338V31.5007L56.997 29.5677L54.3308 31.1141V35.0466C53.0852 35.9875 52.0637 37.1928 51.3399 38.5759C50.6161 39.959 50.208 41.4854 50.1449 43.0451C50.1449 45.0447 50.8248 45.8846 51.7713 46.1512L54.1442 47.4843C54.5472 47.8154 55.0268 48.0401 55.5392 48.1379C56.0515 48.2357 56.5803 48.2035 57.0769 48.0441C56.7202 48.5108 56.2651 48.8931 55.7439 49.164C54.9651 49.5939 54.0935 49.8282 53.2041 49.8468C52.3148 49.8653 51.4342 49.6676 50.6382 49.2705L49.2118 53.9231L52.4911 55.8427C53.0471 56.1263 53.6548 56.294 54.2775 56.3359V57.9889L57.5568 59.9086L60.223 58.3755V54.2696C61.5322 53.3242 62.6096 52.0939 63.374 50.6714C64.1383 49.2489 64.5697 47.6714 64.6355 46.0579C64.7421 44.4315 64.2755 43.5517 63.5557 43.1251Z" fill="url(#paint3_linear_1205_25644)"/>
<path d="M60.3296 54.3629V58.4688L57.6635 60.0019V55.8826C56.8667 56.2393 56.0036 56.4237 55.1307 56.4237C54.2577 56.4237 53.3945 56.2393 52.5978 55.8826L54.0242 51.2302C54.8202 51.6272 55.7008 51.8249 56.5902 51.8063C57.4795 51.7878 58.3511 51.5535 59.1299 51.1235C59.62 50.8933 60.0407 50.538 60.3496 50.0933C60.6586 49.6486 60.8448 49.1304 60.8895 48.5907C60.8895 45.4047 53.491 51.6035 53.491 44.9647C53.5487 43.4053 53.9531 41.8784 54.6749 40.4948C55.3966 39.1113 56.4176 37.9059 57.6635 36.9663V32.967L60.3296 31.4341V35.34C61.6959 34.6779 63.2439 34.4902 64.7288 34.8067L63.3957 39.4858C61.8581 39.2045 60.2709 39.4193 58.8633 40.099C58.4513 40.2922 58.0983 40.5916 57.8406 40.9665C57.5828 41.3414 57.4297 41.7782 57.3969 42.2319C57.3969 45.338 64.7955 39.2992 64.7955 46.0445C64.7396 47.6808 64.3076 49.2823 63.5332 50.7249C62.7588 52.1674 61.6626 53.4122 60.3296 54.3629Z" fill="#F7E041"/>
<path d="M54.3846 35.0867L57.664 37.0063V33.0071L54.3846 31.0875V35.0867Z" fill="#E37A34"/>
<path d="M54.0242 51.2835L50.7449 49.3906L49.3185 54.043L52.5978 55.9626L54.0242 51.2835Z" fill="#E37A34"/>
<defs>
<linearGradient id="paint0_linear_1205_25644" x1="20.911" y1="39.6058" x2="28.1096" y2="39.6058" gradientUnits="userSpaceOnUse">
<stop stop-color="#CC8241"/>
<stop offset="1" stop-color="#DEA861"/>
</linearGradient>
<linearGradient id="paint1_linear_1205_25644" x1="12.459" y1="7.5853" x2="39.4138" y2="23.1557" gradientUnits="userSpaceOnUse">
<stop stop-color="#DEA861"/>
<stop offset="1" stop-color="#EBCBA0"/>
</linearGradient>
<linearGradient id="paint2_linear_1205_25644" x1="54.0907" y1="40.7388" x2="59.2098" y2="31.8739" gradientUnits="userSpaceOnUse">
<stop stop-color="#236568"/>
<stop offset="1" stop-color="#2F878A"/>
</linearGradient>
<linearGradient id="paint3_linear_1205_25644" x1="58.7833" y1="42.3253" x2="60.383" y2="39.5658" gradientUnits="userSpaceOnUse">
<stop stop-color="#E37A34"/>
<stop offset="1" stop-color="#FFC538"/>
</linearGradient>
</defs>
</svg>
