<svg width="24" height="24" viewBox="0 0 24 24" fill="none" xmlns="http://www.w3.org/2000/svg">
<path d="M17 9.99997H19C21 9.99997 22 8.99997 22 6.99997V4.99997C22 2.99997 21 1.99997 19 1.99997H17C15 1.99997 14 2.99997 14 4.99997V6.99997C14 8.99997 15 9.99997 17 9.99997Z" stroke="#292D32" stroke-width="1.5" stroke-miterlimit="10" stroke-linecap="round" stroke-linejoin="round"/>
<path d="M5 22H7C9 22 10 21 10 19V17C10 15 9 14 7 14H5C3 14 2 15 2 17V19C2 21 3 22 5 22Z" stroke="#292D32" stroke-width="1.5" stroke-miterlimit="10" stroke-linecap="round" stroke-linejoin="round"/>
<path d="M6 9.99997C8.20914 9.99997 10 8.20911 10 5.99997C10 3.79083 8.20914 1.99997 6 1.99997C3.79086 1.99997 2 3.79083 2 5.99997C2 8.20911 3.79086 9.99997 6 9.99997Z" stroke="#292D32" stroke-width="1.5" stroke-miterlimit="10" stroke-linecap="round" stroke-linejoin="round"/>
<path d="M18 22C20.2091 22 22 20.2091 22 18C22 15.7908 20.2091 14 18 14C15.7909 14 14 15.7908 14 18C14 20.2091 15.7909 22 18 22Z" stroke="#292D32" stroke-width="1.5" stroke-miterlimit="10" stroke-linecap="round" stroke-linejoin="round"/>
</svg>
