<svg width="17" height="17" viewBox="0 0 17 17" fill="none" xmlns="http://www.w3.org/2000/svg">
<path d="M6.99407 1.39058C7.4431 0.00861168 9.39821 0.00860953 9.84724 1.39058L10.7781 4.25532C10.9789 4.87336 11.5548 5.2918 12.2046 5.2918H15.2168C16.6699 5.2918 17.2741 7.15122 16.0985 8.00532L13.6616 9.77583C13.1359 10.1578 12.9159 10.8348 13.1167 11.4529L14.0475 14.3176C14.4965 15.6996 12.9148 16.8488 11.7392 15.9947L9.30233 14.2242C8.7766 13.8422 8.06471 13.8422 7.53898 14.2242L5.10208 15.9947C3.92651 16.8488 2.34479 15.6996 2.79382 14.3176L3.72463 11.4529C3.92544 10.8348 3.70545 10.1578 3.17972 9.77583L0.742825 8.00532C-0.432746 7.15122 0.171417 5.2918 1.6245 5.2918H4.63667C5.28651 5.2918 5.86245 4.87336 6.06326 4.25532L6.99407 1.39058Z" fill="#FFAA00"/>
</svg>
