<svg width="18" height="17" viewBox="0 0 18 17" fill="none" xmlns="http://www.w3.org/2000/svg">
<path d="M7.57341 1.39204C8.02244 0.0100765 9.97756 0.0100744 10.4266 1.39204L11.3574 4.25679C11.5582 4.87482 12.1341 5.29326 12.784 5.29326H15.7962C17.2492 5.29326 17.8534 7.15268 16.6778 8.00679L14.2409 9.7773C13.7152 10.1593 13.4952 10.8363 13.696 11.4543L14.6268 14.3191C15.0759 15.7011 13.4941 16.8502 12.3186 15.9961L9.88168 14.2256C9.35595 13.8437 8.64405 13.8437 8.11832 14.2256L5.68143 15.9961C4.50586 16.8502 2.92413 15.7011 3.37316 14.3191L4.30397 11.4543C4.50479 10.8363 4.2848 10.1593 3.75907 9.7773L1.32217 8.00679C0.1466 7.15269 0.750763 5.29326 2.20385 5.29326H5.21602C5.86586 5.29326 6.44179 4.87482 6.6426 4.25679L7.57341 1.39204Z" fill="#CBCFD3"/>
</svg>
