<svg width="24" height="25" viewBox="0 0 24 25" fill="none" xmlns="http://www.w3.org/2000/svg">
<path d="M6.23775 2.5L5.28046 3.514L6.28043 4.54666L7.28039 3.52643L6.23775 2.5ZM2.14033 8.33515C2.04669 7.9717 1.99954 7.59741 2.00009 7.22162C1.99875 6.98038 2.01301 6.73932 2.04277 6.5C2.07599 6.26103 2.12283 6.02425 2.18302 5.79083C2.2529 5.53065 2.33841 5.27511 2.4391 5.02566C2.54275 4.76438 2.66469 4.47201 2.81713 4.15475L4.0366 4.77683C3.90246 5.05055 3.79272 5.29938 3.70735 5.51088C3.62359 5.71351 3.55231 5.92128 3.49394 6.13297C3.38512 6.49358 3.33164 6.86921 3.33541 7.2465C3.33359 7.49263 3.36644 7.73774 3.43297 7.97433C3.49025 8.19259 3.57641 8.40188 3.68906 8.59642C3.87228 8.86834 4.11831 9.09005 4.40544 9.24195C4.69256 9.39384 5.01193 9.47126 5.33533 9.46735H6.49993C6.81934 9.47546 7.13808 9.4335 7.44501 9.34293C7.66035 9.27872 7.85572 9.1587 8.01208 8.99456C8.15222 8.8412 8.24912 8.65205 8.29255 8.44712C8.34304 8.2164 8.36759 7.98056 8.36572 7.74416V3.97434H9.73151V7.74416C9.76425 8.17023 9.709 8.59856 9.56931 9.00147C9.42962 9.40438 9.20861 9.77291 8.92058 10.0832C8.23657 10.6541 7.36255 10.9328 6.48164 10.8608H5.36583C5.08018 10.8606 4.79559 10.825 4.51829 10.755C4.25284 10.6861 3.99682 10.5837 3.75612 10.4502C3.51417 10.3223 3.29056 10.1611 3.09152 9.97124C2.89059 9.78662 2.71246 9.57772 2.56105 9.34915C2.37283 9.03477 2.23298 8.69279 2.14642 8.33515H2.14033ZM20.9811 12.7955L20.0482 13.7473L19.1275 12.7955L20.0421 11.8313L20.9811 12.7955ZM9.73151 15.5202C9.5399 15.2714 9.29616 15.0695 9.01814 14.9292C8.70361 14.7788 8.35937 14.7043 8.01208 14.7115C7.69902 14.6991 7.38786 14.7666 7.1068 14.9078C6.82573 15.049 6.58362 15.2595 6.40237 15.5202C6.22866 15.7603 6.08907 16.0241 5.98775 16.304C5.8902 16.5902 5.79874 16.8639 5.72557 17.1314C5.68289 17.2869 5.6402 17.4238 5.59752 17.5482C5.56322 17.6602 5.51829 17.7686 5.46337 17.8717C5.41778 17.9474 5.36241 18.0164 5.29875 18.077C5.23618 18.1216 5.16167 18.1455 5.08534 18.1454H4.67073C4.42811 18.1508 4.18546 18.1362 3.94514 18.1019C3.79667 18.0827 3.65905 18.0125 3.55492 17.9028C3.46053 17.7843 3.40506 17.6385 3.39638 17.486C3.37441 17.2482 3.36422 17.0094 3.36589 16.7706V11.4642H2.00009V16.7706C2.00009 17.0817 2.0001 17.3927 2.03058 17.6291C2.04564 17.8652 2.08653 18.0989 2.15252 18.3258C2.20913 18.5225 2.30229 18.7062 2.42691 18.867C2.55563 19.0266 2.71827 19.1543 2.9025 19.2403C3.13242 19.3505 3.37685 19.4259 3.62809 19.4642C3.88634 19.5057 4.14714 19.5286 4.40854 19.5327H5.08534C5.30972 19.5369 5.53295 19.4989 5.74386 19.4207C5.94705 19.3348 6.12844 19.2029 6.27433 19.035L6.88406 19.3585C7.05606 19.4499 7.23319 19.5309 7.41453 19.6011C7.57913 19.6643 7.74833 19.7142 7.9206 19.7504C8.09082 19.7884 8.26463 19.8072 8.43888 19.8064H8.76814C8.90512 19.7866 9.0399 19.7532 9.17057 19.7068C9.31756 19.6521 9.45535 19.5744 9.57908 19.4767C9.72964 19.3644 9.85447 19.22 9.94492 19.0536C10.0671 18.8433 10.1556 18.6144 10.2071 18.3756C10.2791 18.0512 10.3118 17.719 10.3047 17.3865C10.3077 17.0453 10.2604 16.7055 10.1644 16.3787C10.0801 16.0662 9.93494 15.7742 9.73762 15.5202H9.73151ZM9.04861 18.0086C9.00825 18.1249 8.94378 18.231 8.8596 18.3196C8.7987 18.3792 8.72266 18.4201 8.6401 18.4378H8.48157C8.36523 18.4358 8.24996 18.4148 8.14012 18.3756C7.99915 18.3317 7.86073 18.2798 7.7255 18.2201C7.57916 18.1578 7.43282 18.0832 7.28039 18.0086L6.84748 17.7659C6.9204 17.5879 6.9815 17.405 7.0304 17.2185C7.08468 17.0285 7.15401 16.8434 7.2377 16.6648C7.31186 16.5034 7.4153 16.3578 7.54257 16.2356C7.60577 16.1765 7.67978 16.1307 7.76033 16.1009C7.84089 16.071 7.92644 16.0576 8.01208 16.0614C8.20371 16.0531 8.39319 16.1052 8.55473 16.2107C8.69482 16.3091 8.81321 16.4362 8.90228 16.584C8.98467 16.721 9.04633 16.8699 9.0852 17.0257C9.11633 17.1476 9.13273 17.2729 9.13399 17.3989C9.15204 17.6138 9.12502 17.8301 9.05472 18.0334L9.04861 18.0086ZM17.7312 11.7877L18.6763 12.7457L17.7495 13.7037L16.8654 12.7955L17.7312 11.7877ZM20.9628 16.8204C20.9491 16.6513 20.9267 16.4831 20.8958 16.3165C20.8958 16.1423 20.8409 15.9681 20.8104 15.7939C20.7799 15.6198 20.7494 15.4705 20.7189 15.3274C20.6885 15.1843 20.6641 15.0723 20.6397 14.9728C20.6272 14.9096 20.6109 14.8473 20.5909 14.7862L19.3044 15.1843C19.3044 15.2403 19.3409 15.3211 19.3653 15.4207C19.3897 15.5202 19.4141 15.6384 19.4385 15.7628C19.4629 15.8873 19.4934 16.0241 19.5238 16.161C19.5543 16.2978 19.5726 16.4409 19.597 16.5715C19.6214 16.7022 19.6336 16.8328 19.6458 16.951C19.6508 17.0505 19.6508 17.1501 19.6458 17.2496C19.653 17.4124 19.6216 17.5746 19.5543 17.7224C19.5012 17.8234 19.4261 17.9106 19.3348 17.9775C19.2616 18.0283 19.1784 18.0623 19.0909 18.077H18.9019H15.8533V17.318C15.8584 16.9472 15.8174 16.5772 15.7313 16.2169C15.6548 15.9005 15.518 15.6025 15.3289 15.3398C15.1498 15.0892 14.9104 14.89 14.6338 14.7613C14.3315 14.6271 14.0061 14.5553 13.6765 14.55C13.3469 14.5447 13.0195 14.6059 12.7131 14.7302C12.4333 14.8549 12.1789 15.0322 11.9631 15.2527C11.8747 15.346 11.7932 15.4458 11.7193 15.5513C11.6317 15.6764 11.5562 15.8097 11.4937 15.9495C11.4216 16.1197 11.3665 16.2968 11.329 16.4782C11.2795 16.7048 11.257 16.9366 11.262 17.1687C11.257 17.4355 11.2898 17.7016 11.3595 17.9588C11.4209 18.1786 11.5134 18.3882 11.6339 18.5809C11.746 18.7459 11.884 18.891 12.0424 19.0101C12.1972 19.1257 12.3651 19.2218 12.5424 19.2963C12.7194 19.3664 12.9034 19.4165 13.0912 19.4456C13.2747 19.4753 13.4602 19.4898 13.646 19.4891H14.4935C14.4916 19.7224 14.4439 19.953 14.3533 20.1672C14.2718 20.3412 14.153 20.4942 14.0058 20.6151C13.8995 20.7025 13.7827 20.7757 13.6582 20.8328C13.5075 20.9 13.3501 20.95 13.1887 20.9821C12.9882 21.0295 12.7843 21.0607 12.579 21.0754C12.3534 21.0754 12.0912 21.1065 11.7985 21.1065V22.5C12.1766 22.5 12.518 22.5 12.8229 22.4502C13.1002 22.4224 13.3753 22.3746 13.646 22.3072C13.8748 22.2431 14.0972 22.1577 14.3106 22.0521C14.5047 21.9553 14.6885 21.8386 14.8594 21.7037C15.1652 21.4581 15.4131 21.1456 15.585 20.7893C15.7605 20.3794 15.8499 19.9364 15.8471 19.4891H18.8958C19.1512 19.4881 19.4046 19.444 19.6458 19.3585C19.8986 19.2709 20.1311 19.1311 20.3287 18.9479C20.5369 18.7527 20.7031 18.5155 20.8165 18.2512C20.9445 17.9338 21.0068 17.5928 20.9994 17.2496C20.9955 17.1227 20.9853 16.996 20.9689 16.8701L20.9628 16.8204ZM14.4935 18.0645H13.646C13.5204 18.066 13.3951 18.0492 13.2741 18.0148C13.1542 17.9835 13.0406 17.9309 12.9387 17.8593C12.8356 17.784 12.7502 17.6862 12.6887 17.5731C12.6243 17.4443 12.5929 17.3009 12.5973 17.1563C12.5696 16.8229 12.6678 16.4914 12.8717 16.2294C12.9666 16.1287 13.0815 16.0499 13.2088 15.9984C13.336 15.9469 13.4727 15.9238 13.6094 15.9308H13.7558C13.8192 15.9395 13.881 15.9584 13.9387 15.9868C14.0096 16.023 14.0753 16.0691 14.1338 16.1236C14.2084 16.1904 14.2704 16.2705 14.3167 16.36C14.3777 16.4793 14.4209 16.6072 14.4448 16.7395C14.479 16.9198 14.4953 17.1032 14.4935 17.2869V18.0645Z" fill="#41BF74"/>
</svg>
