<svg width="20" height="20" viewBox="0 0 20 20" fill="none" xmlns="http://www.w3.org/2000/svg">
<path d="M6.72144 0.5C3.55463 0.5 0.971436 3.08319 0.971436 6.25V13.75C0.971436 16.9164 3.55454 19.5 6.72144 19.5H14.2214C17.3879 19.5 19.9714 16.9165 19.9714 13.75V6.25C19.9714 3.0831 17.3878 0.5 14.2214 0.5H6.72144ZM6.72144 2H14.2214C16.5771 2 18.4714 3.8939 18.4714 6.25V13.75C18.4714 16.1055 16.577 18 14.2214 18H6.72144C4.36533 18 2.47144 16.1056 2.47144 13.75V6.25C2.47144 3.89381 4.36524 2 6.72144 2ZM15.4714 4C14.9189 4 14.4714 4.4475 14.4714 5C14.4714 5.5525 14.9189 6 15.4714 6C16.0239 6 16.4714 5.5525 16.4714 5C16.4714 4.4475 16.0239 4 15.4714 4ZM10.4714 5C7.71902 5 5.47144 7.24759 5.47144 10C5.47144 12.7524 7.71902 15 10.4714 15C13.2238 15 15.4714 12.7524 15.4714 10C15.4714 7.24759 13.2238 5 10.4714 5ZM10.4714 6.5C12.413 6.5 13.9714 8.05841 13.9714 10C13.9714 11.9416 12.413 13.5 10.4714 13.5C8.52985 13.5 6.97144 11.9416 6.97144 10C6.97144 8.05841 8.52985 6.5 10.4714 6.5Z" fill="black"/>
</svg>
