<svg width="28" height="28" viewBox="0 0 28 28" fill="none" xmlns="http://www.w3.org/2000/svg">
<path d="M13.7091 22.157C16.2865 22.157 18.3758 20.0677 18.3758 17.4903C18.3758 14.913 16.2865 12.8237 13.7091 12.8237C11.1318 12.8237 9.04248 14.913 9.04248 17.4903C9.04248 20.0677 11.1318 22.157 13.7091 22.157Z" stroke="white" stroke-width="1.5" stroke-miterlimit="10" stroke-linecap="round" stroke-linejoin="round"/>
<path d="M15.4656 17.5503L11.9761 17.5585" stroke="white" stroke-width="1.5" stroke-miterlimit="10" stroke-linecap="round" stroke-linejoin="round"/>
<path d="M13.6976 15.8349L13.6976 19.3327" stroke="white" stroke-width="1.5" stroke-miterlimit="10" stroke-linecap="round" stroke-linejoin="round"/>
<path d="M10.2093 25.657H17.2093C21.8993 25.657 22.7393 23.7787 22.9843 21.492L23.8593 14.492C24.1743 11.6453 23.3576 9.32367 18.3759 9.32367H9.0426C4.06094 9.32367 3.24427 11.6453 3.55927 14.492L4.43427 21.492C4.67927 23.7787 5.51927 25.657 10.2093 25.657Z" stroke="white" stroke-width="1.5" stroke-miterlimit="10" stroke-linecap="round" stroke-linejoin="round"/>
<path d="M8.45923 8.93869V7.80702C8.45923 5.18202 10.5709 2.60368 13.1959 2.35868C16.3226 2.05535 18.9592 4.51702 18.9592 7.58535V9.19535" stroke="white" stroke-width="1.5" stroke-miterlimit="10" stroke-linecap="round" stroke-linejoin="round"/>
</svg>
