<svg width="29" height="28" viewBox="0 0 29 28" fill="none" xmlns="http://www.w3.org/2000/svg">
<path d="M14.2091 22.1568C16.7865 22.1568 18.8758 20.0675 18.8758 17.4902C18.8758 14.9128 16.7865 12.8235 14.2091 12.8235C11.6318 12.8235 9.54248 14.9128 9.54248 17.4902C9.54248 20.0675 11.6318 22.1568 14.2091 22.1568Z" stroke="#292D32" stroke-width="1.5" stroke-miterlimit="10" stroke-linecap="round" stroke-linejoin="round"/>
<path d="M15.9656 17.5501L12.4761 17.5583" stroke="#292D32" stroke-width="1.5" stroke-miterlimit="10" stroke-linecap="round" stroke-linejoin="round"/>
<path d="M14.1976 15.8348L14.1976 19.3326" stroke="#292D32" stroke-width="1.5" stroke-miterlimit="10" stroke-linecap="round" stroke-linejoin="round"/>
<path d="M10.7093 25.6568H17.7093C22.3993 25.6568 23.2393 23.7785 23.4843 21.4918L24.3593 14.4918C24.6743 11.6452 23.8576 9.32349 18.8759 9.32349H9.5426C4.56094 9.32349 3.74427 11.6452 4.05927 14.4918L4.93427 21.4918C5.17927 23.7785 6.01927 25.6568 10.7093 25.6568Z" stroke="#292D32" stroke-width="1.5" stroke-miterlimit="10" stroke-linecap="round" stroke-linejoin="round"/>
<path d="M8.95923 8.93858V7.80691C8.95923 5.18191 11.0709 2.60358 13.6959 2.35858C16.8226 2.05524 19.4592 4.51691 19.4592 7.58525V9.19524" stroke="#292D32" stroke-width="1.5" stroke-miterlimit="10" stroke-linecap="round" stroke-linejoin="round"/>
</svg>
