<svg width="26" height="27" viewBox="0 0 26 27" fill="none" xmlns="http://www.w3.org/2000/svg">
<path d="M6.31696 0.166687L5.04057 1.51869L6.37387 2.89557L7.70714 1.53527L6.31696 0.166687ZM0.853735 7.94689C0.728875 7.46229 0.666015 6.96324 0.666741 6.46218C0.664958 6.14053 0.683974 5.81911 0.723655 5.50002C0.767952 5.18139 0.830394 4.86568 0.910649 4.55446C1.00383 4.20756 1.11785 3.86683 1.25209 3.53423C1.39029 3.18587 1.55288 2.79603 1.75613 2.37301L3.38209 3.20246C3.20323 3.56742 3.05691 3.89919 2.9431 4.1812C2.83142 4.45137 2.73638 4.72839 2.65855 5.01065C2.51346 5.49146 2.44215 5.9923 2.44717 6.49536C2.44474 6.82353 2.48855 7.15034 2.57725 7.4658C2.65362 7.75681 2.76851 8.03586 2.91871 8.29524C3.163 8.65781 3.49104 8.95342 3.87388 9.15595C4.25671 9.35848 4.68253 9.4617 5.11374 9.45649H6.66653C7.09242 9.46731 7.5174 9.41135 7.92664 9.29059C8.21375 9.20498 8.47426 9.04496 8.68273 8.8261C8.86958 8.62163 8.99879 8.36943 9.05669 8.09618C9.12402 7.78856 9.15674 7.4741 9.15425 7.15891V2.13247H10.9753V7.15891C11.019 7.72699 10.9453 8.2981 10.759 8.83531C10.5728 9.37253 10.2781 9.8639 9.89406 10.2776C8.98206 11.0388 7.81669 11.4104 6.64214 11.3144H5.1544C4.77353 11.3141 4.39408 11.2667 4.02435 11.1734C3.67041 11.0814 3.32905 10.9449 3.00812 10.767C2.68552 10.5964 2.38737 10.3815 2.12198 10.1283C1.85408 9.88218 1.61657 9.60365 1.41469 9.29889C1.16374 8.87972 0.977272 8.42375 0.861848 7.94689H0.853735ZM25.9748 13.894L24.7309 15.1631L23.5033 13.894L24.7228 12.6084L25.9748 13.894ZM10.9753 17.527C10.7198 17.1952 10.3948 16.926 10.0241 16.739C9.60478 16.5385 9.14578 16.4391 8.68273 16.4487C8.26532 16.4322 7.85044 16.5222 7.47569 16.7104C7.10094 16.8987 6.77812 17.1794 6.53645 17.527C6.30483 17.847 6.11872 18.1989 5.98363 18.5721C5.85356 18.9536 5.73161 19.3186 5.63406 19.6752C5.57715 19.8826 5.52022 20.0651 5.46331 20.231C5.41759 20.3803 5.35768 20.5248 5.28446 20.6623C5.22367 20.7632 5.14984 20.8552 5.06496 20.936C4.98154 20.9955 4.88219 21.0273 4.78041 21.0272H4.22759C3.90411 21.0344 3.58058 21.015 3.26015 20.9692C3.06219 20.9436 2.87869 20.85 2.73985 20.7038C2.61399 20.5457 2.54004 20.3513 2.52847 20.148C2.49917 19.831 2.48559 19.5126 2.48781 19.1942V12.119H0.666741V19.1942C0.666741 19.6089 0.666755 20.0236 0.707404 20.3388C0.727473 20.6537 0.781996 20.9653 0.869985 21.2678C0.945461 21.53 1.06967 21.775 1.23584 21.9894C1.40747 22.2022 1.62432 22.3724 1.86996 22.4871C2.17652 22.634 2.50242 22.7346 2.83741 22.7857C3.18175 22.841 3.52948 22.8715 3.87802 22.8769H4.78041C5.07959 22.8825 5.37723 22.8319 5.65844 22.7276C5.92936 22.6131 6.17121 22.4372 6.36573 22.2133L7.17871 22.6447C7.40804 22.7666 7.64421 22.8746 7.886 22.9681C8.10546 23.0524 8.33107 23.119 8.56076 23.1672C8.78772 23.2179 9.01947 23.243 9.2518 23.2419H9.69081C9.87345 23.2154 10.0532 23.171 10.2274 23.1092C10.4234 23.0361 10.6071 22.9326 10.7721 22.8023C10.9728 22.6525 11.1393 22.4601 11.2599 22.2382C11.4227 21.9577 11.5407 21.6525 11.6094 21.3341C11.7054 20.9016 11.7491 20.4587 11.7395 20.0153C11.7436 19.5604 11.6806 19.1074 11.5525 18.6716C11.4401 18.255 11.2465 17.8657 10.9834 17.527H10.9753ZM10.0648 20.8448C10.011 20.9999 9.92501 21.1413 9.81276 21.2595C9.73156 21.3389 9.63018 21.3935 9.5201 21.4171H9.30871C9.15359 21.4144 8.9999 21.3864 8.85345 21.3341C8.6655 21.2757 8.48094 21.2064 8.30063 21.1268C8.10551 21.0438 7.91039 20.9443 7.70714 20.8448L7.12994 20.5213C7.22716 20.2838 7.30863 20.04 7.37382 19.7914C7.4462 19.5381 7.53864 19.2912 7.65023 19.0532C7.7491 18.8379 7.88703 18.6437 8.05672 18.4808C8.14099 18.4021 8.23966 18.341 8.34707 18.3012C8.45448 18.2613 8.56855 18.2434 8.68273 18.2486C8.93824 18.2375 9.19088 18.307 9.40627 18.4477C9.59305 18.5788 9.7509 18.7483 9.86967 18.9453C9.97952 19.128 10.0617 19.3265 10.1136 19.5342C10.1551 19.6968 10.1769 19.8639 10.1786 20.0319C10.2027 20.3184 10.1666 20.6068 10.0729 20.8779L10.0648 20.8448ZM21.6416 12.5503L22.9017 13.8277L21.666 15.105L20.4872 13.894L21.6416 12.5503ZM25.9504 19.2605C25.932 19.0351 25.9022 18.8109 25.861 18.5887C25.861 18.3564 25.7878 18.1242 25.7472 17.8919C25.7065 17.6597 25.6659 17.4606 25.6252 17.2698C25.5846 17.0791 25.552 16.9298 25.5195 16.7971C25.5028 16.7128 25.4811 16.6297 25.4545 16.5482L23.7391 17.0791C23.7391 17.1537 23.7879 17.2615 23.8204 17.3943C23.8529 17.527 23.8854 17.6846 23.918 17.8505C23.9505 18.0164 23.9911 18.1988 24.0318 18.3813C24.0724 18.5638 24.0968 18.7546 24.1293 18.9287C24.1619 19.1029 24.1781 19.2771 24.1944 19.4347C24.201 19.5673 24.201 19.7002 24.1944 19.8328C24.204 20.0499 24.1621 20.2661 24.0724 20.4632C24.0015 20.5978 23.9014 20.7141 23.7797 20.8033C23.6821 20.8711 23.5711 20.9164 23.4545 20.936H23.2025H19.1376V19.9241C19.1445 19.4297 19.0899 18.9363 18.975 18.4559C18.873 18.034 18.6907 17.6367 18.4385 17.2864C18.1997 16.9523 17.8805 16.6866 17.5117 16.5151C17.1086 16.3362 16.6748 16.2405 16.2353 16.2333C15.7958 16.2262 15.3592 16.3079 14.9508 16.4736C14.5777 16.6399 14.2384 16.8762 13.9508 17.1703C13.8329 17.2946 13.7242 17.4277 13.6256 17.5685C13.5089 17.7352 13.4082 17.9129 13.3248 18.0993C13.2288 18.3263 13.1553 18.5624 13.1053 18.8043C13.0393 19.1064 13.0092 19.4156 13.0159 19.725C13.0093 20.0807 13.0531 20.4355 13.146 20.7784C13.2279 21.0715 13.3511 21.3509 13.5118 21.6079C13.6613 21.8279 13.8453 22.0213 14.0565 22.1802C14.2629 22.3343 14.4867 22.4624 14.7232 22.5617C14.9592 22.6552 15.2045 22.722 15.4548 22.7608C15.6995 22.8004 15.9469 22.8198 16.1946 22.8188H17.3247C17.3221 23.1299 17.2585 23.4373 17.1377 23.7229C17.029 23.9549 16.8706 24.159 16.6743 24.3201C16.5326 24.4367 16.3769 24.5343 16.2109 24.6104C16.01 24.7 15.8001 24.7668 15.5849 24.8095C15.3175 24.8727 15.0457 24.9143 14.7719 24.9339C14.4711 24.9339 14.1216 24.9754 13.7313 24.9754V26.8334C14.2354 26.8334 14.6906 26.8334 15.0971 26.767C15.4669 26.7299 15.8337 26.6661 16.1946 26.5762C16.4996 26.4908 16.7963 26.377 17.0808 26.2362C17.3395 26.1071 17.5847 25.9515 17.8125 25.7717C18.2202 25.4441 18.5508 25.0275 18.7799 24.5524C19.014 24.0058 19.1331 23.4153 19.1295 22.8188H23.1944C23.5349 22.8175 23.8728 22.7587 24.1944 22.6447C24.5315 22.5279 24.8414 22.3415 25.1049 22.0972C25.3826 21.837 25.6041 21.5206 25.7553 21.1683C25.926 20.745 26.009 20.2904 25.9992 19.8328C25.9939 19.6636 25.9803 19.4947 25.9585 19.3269L25.9504 19.2605ZM17.3247 20.9194H16.1946C16.0271 20.9213 15.8601 20.899 15.6987 20.8531C15.5388 20.8114 15.3875 20.7412 15.2516 20.6457C15.1141 20.5454 15.0002 20.415 14.9183 20.2642C14.8324 20.0924 14.7904 19.9012 14.7963 19.7084C14.7594 19.264 14.8903 18.8219 15.1622 18.4726C15.2887 18.3383 15.442 18.2332 15.6117 18.1646C15.7814 18.0959 15.9635 18.0651 16.1459 18.0744H16.341C16.4256 18.0861 16.5079 18.1113 16.5849 18.1491C16.6794 18.1974 16.767 18.2588 16.845 18.3315C16.9445 18.4205 17.0272 18.5273 17.0889 18.6467C17.1702 18.8058 17.2278 18.9763 17.2596 19.1527C17.3052 19.3932 17.327 19.6377 17.3247 19.8826V20.9194Z" fill="#292D32"/>
</svg>
