<svg width="16" height="15" viewBox="0 0 16 15" fill="none" xmlns="http://www.w3.org/2000/svg">
<rect width="16" height="15" fill="#F5F5F5"/>
<rect width="1728" height="1731" transform="translate(-1548 -338)" fill="white"/>
<rect x="-288" y="-17" width="368" height="49" rx="20" fill="#EEF0F3"/>
<path d="M14.6666 10.66V2.6133C14.6666 1.8133 14.0133 1.21996 13.2199 1.28663H13.1799C11.7799 1.40663 9.65325 2.11996 8.46659 2.86663L8.35325 2.93996C8.15992 3.05996 7.83992 3.05996 7.64659 2.93996L7.47992 2.83996C6.29325 2.09996 4.17325 1.3933 2.77325 1.27996C1.97992 1.2133 1.33325 1.8133 1.33325 2.60663V10.66C1.33325 11.3 1.85325 11.9 2.49325 11.98L2.68659 12.0066C4.13325 12.2 6.36659 12.9333 7.64659 13.6333L7.67325 13.6466C7.85325 13.7466 8.13992 13.7466 8.31325 13.6466C9.59325 12.94 11.8333 12.2 13.2866 12.0066L13.5066 11.98C14.1466 11.9 14.6666 11.3 14.6666 10.66Z" stroke="#292D32" stroke-width="1.5" stroke-linecap="round" stroke-linejoin="round"/>
<path d="M8 3.15997V13.16" stroke="#292D32" stroke-width="1.5" stroke-linecap="round" stroke-linejoin="round"/>
<path d="M5.16675 5.15997H3.66675" stroke="#292D32" stroke-width="1.5" stroke-linecap="round" stroke-linejoin="round"/>
<path d="M5.66675 7.15997H3.66675" stroke="#292D32" stroke-width="1.5" stroke-linecap="round" stroke-linejoin="round"/>
</svg>
