<svg width="23" height="22" viewBox="0 0 23 22" fill="none" xmlns="http://www.w3.org/2000/svg">
<rect width="23" height="22" fill="#F5F5F5"/>
<rect width="1728" height="1731" transform="translate(-715 -2871)" fill="white"/>
<rect x="-615" y="-1642" width="1128" height="2417" rx="20" fill="#F4F8F9"/>
<g filter="url(#filter0_d_1086_7994)">
<rect x="-591" y="-16.9985" width="1080" height="56" rx="20" fill="#6B2AD3" shape-rendering="crispEdges"/>
<path d="M8 18.0015H7.5C3.5 18.0015 1.5 17.0015 1.5 12.0015V7.00146C1.5 3.00146 3.5 1.00146 7.5 1.00146H15.5C19.5 1.00146 21.5 3.00146 21.5 7.00146V12.0015C21.5 16.0015 19.5 18.0015 15.5 18.0015H15C14.69 18.0015 14.39 18.1515 14.2 18.4015L12.7 20.4015C12.04 21.2815 10.96 21.2815 10.3 20.4015L8.8 18.4015C8.64 18.1815 8.27 18.0015 8 18.0015Z" stroke="white" stroke-width="1.5" stroke-miterlimit="10" stroke-linecap="round" stroke-linejoin="round"/>
<path d="M15.4965 10.0015H15.5054" stroke="white" stroke-width="2" stroke-linecap="round" stroke-linejoin="round"/>
<path d="M11.4955 10.0015H11.5045" stroke="white" stroke-width="2" stroke-linecap="round" stroke-linejoin="round"/>
<path d="M7.49451 10.0015H7.50349" stroke="white" stroke-width="2" stroke-linecap="round" stroke-linejoin="round"/>
</g>
<defs>
<filter id="filter0_d_1086_7994" x="-599" y="-23.9985" width="1096" height="72" filterUnits="userSpaceOnUse" color-interpolation-filters="sRGB">
<feFlood flood-opacity="0" result="BackgroundImageFix"/>
<feColorMatrix in="SourceAlpha" type="matrix" values="0 0 0 0 0 0 0 0 0 0 0 0 0 0 0 0 0 0 127 0" result="hardAlpha"/>
<feOffset dy="1"/>
<feGaussianBlur stdDeviation="4"/>
<feComposite in2="hardAlpha" operator="out"/>
<feColorMatrix type="matrix" values="0 0 0 0 0 0 0 0 0 0 0 0 0 0 0 0 0 0 0.16 0"/>
<feBlend mode="normal" in2="BackgroundImageFix" result="effect1_dropShadow_1086_7994"/>
<feBlend mode="normal" in="SourceGraphic" in2="effect1_dropShadow_1086_7994" result="shape"/>
</filter>
</defs>
</svg>
