<svg width="52" height="66" viewBox="0 0 52 66" fill="none" xmlns="http://www.w3.org/2000/svg">
<path d="M44.3408 60.2934C43.8793 60.2951 43.4302 60.1441 43.0633 59.8641C42.6964 59.5841 42.4323 59.1906 42.3122 58.745C42.192 58.2994 42.2225 57.8266 42.3989 57.4001C42.5753 56.9736 42.8877 56.6173 43.2875 56.3867L47.2875 54.0801C47.5256 53.9426 47.7885 53.8534 48.0611 53.8175C48.3337 53.7817 48.6107 53.7999 48.8763 53.871C49.1418 53.9422 49.3908 54.0651 49.6089 54.2325C49.827 54.3999 50.01 54.6086 50.1475 54.8467C50.2849 55.0848 50.3741 55.3477 50.41 55.6203C50.4459 55.8929 50.4277 56.1699 50.3565 56.4355C50.2853 56.7011 50.1625 56.95 49.9951 57.1682C49.8277 57.3863 49.6189 57.5693 49.3808 57.7067L45.3808 60.0134C45.0638 60.1941 44.7057 60.2906 44.3408 60.2934Z" fill="#43386B"/>
<path d="M25.0604 50.5067C25.0604 43.3467 20.7137 35.0134 15.3271 31.9068C12.6604 30.3468 10.3404 30.4667 8.42041 31.7601L4.24707 34.1734L17.4204 60.8401L21.9404 58.1734C23.8604 56.9734 25.0604 54.2801 25.0604 50.5067Z" fill="url(#paint0_linear_1205_25653)"/>
<path d="M17.0072 61.0667C21.3005 59.2401 22.1672 51.6001 18.9272 44.0134C15.6872 36.4267 9.59383 31.7468 5.28716 33.5734C0.980492 35.4001 0.127155 43.0401 3.36716 50.6401C6.60716 58.2401 12.7138 62.8934 17.0072 61.0667Z" fill="#A996EB"/>
<path d="M18.274 53.4667C18.274 59.8801 14.3674 62.8001 9.55408 60.0534C4.74074 57.3067 0.847412 49.8134 0.847412 43.4001C0.847412 36.9867 4.74074 34.0667 9.55408 36.8134C14.3674 39.5601 18.274 47.0401 18.274 53.4667Z" fill="url(#paint1_linear_1205_25653)"/>
<path d="M12.4344 52.4534C12.4344 56.2667 10.1144 58.0267 7.24772 56.3734C4.38105 54.7201 2.06104 50.28 2.06104 46.4667C2.06104 42.6534 4.38105 40.8934 7.24772 42.5467C10.1144 44.2 12.4344 48.6267 12.4344 52.4534Z" fill="url(#paint2_linear_1205_25653)"/>
<path d="M51.0072 34.4667C51.0072 40.8801 47.1006 43.8001 42.2872 41.0534C37.4739 38.3067 33.5806 30.8267 33.5806 24.4001C33.5806 17.9734 37.4739 15.0667 42.2872 17.8134C47.1006 20.5601 51.0072 28.0534 51.0072 34.4667Z" fill="url(#paint3_linear_1205_25653)"/>
<path d="M50.6209 35.7334C50.6209 28.5734 46.2609 20.24 40.8876 17.1334C38.2209 15.5734 35.8876 15.6934 33.9676 16.9867L29.8076 19.4001L42.9676 46.0667L46.9676 43.7067L47.4342 43.4401C49.4076 42.2001 50.6209 39.5067 50.6209 35.7334Z" fill="url(#paint4_linear_1205_25653)"/>
<path d="M42.554 46.2801C46.8474 44.4401 47.7007 36.8 44.474 29.2134C41.2474 21.6267 35.1407 16.9467 30.834 18.7734C26.5274 20.6001 25.674 28.2534 28.914 35.8401C32.154 43.4267 38.2474 48.1067 42.554 46.2801Z" fill="#A996EB"/>
<path d="M42.7408 36.0534C42.7408 40.5067 40.0742 42.5601 36.6875 40.6267C33.3008 38.6934 30.6208 33.52 30.6208 29.0534C30.6208 24.5867 33.2875 22.5467 36.6875 24.48C40.0875 26.4134 42.7408 31.5867 42.7408 36.0534Z" fill="url(#paint5_linear_1205_25653)"/>
<path d="M39.2877 7.01337H39.3944L38.5411 6.5067C38.5411 6.5067 30.5411 1.93339 30.3411 1.90672C28.8986 1.23254 27.3142 0.917949 25.7236 0.989934C24.1329 1.06192 22.5834 1.51833 21.2077 2.32005C17.2385 4.62416 13.9445 7.93098 11.6559 11.9092C9.36726 15.8874 8.16436 20.3972 8.16773 24.9867V32.1067C9.50822 32.1641 10.8117 32.5634 11.9544 33.2667C13.3061 34.0801 14.5247 35.0965 15.5677 36.2801L17.5144 35.1467V29.1601C17.5217 24.921 18.6411 20.758 20.7609 17.087C22.8807 13.416 25.9266 10.3654 29.5944 8.24006C30.6968 7.60192 31.9355 7.2362 33.2077 7.17336C33.8234 8.34044 34.1438 9.64057 34.1411 10.9601V17.0667C35.4692 17.1343 36.7583 17.538 37.8877 18.2401C39.2617 19.0603 40.4951 20.0957 41.5411 21.3067L43.5011 20.1734V15.1734C43.5164 13.5729 43.1406 11.993 42.4063 10.5709C41.672 9.1488 40.6014 7.92756 39.2877 7.01337Z" fill="url(#paint6_linear_1205_25653)"/>
<path d="M17.4741 35.1334V29.1467C17.4814 24.9077 18.6008 20.7447 20.7206 17.0737C22.8404 13.4026 25.8863 10.3521 29.5541 8.22673C30.7687 7.52549 32.1462 7.15586 33.5487 7.15491C34.9511 7.15396 36.3292 7.52172 37.5448 8.22132C38.7603 8.92092 39.7705 9.92779 40.4742 11.141C41.1779 12.3541 41.5503 13.7309 41.5541 15.1334V21.2667L43.5141 20.1334V15.1334C43.517 13.3893 43.0601 11.6753 42.1894 10.1642C41.3187 8.65303 40.065 7.39813 38.5546 6.526C37.0443 5.65388 35.3308 5.19536 33.5867 5.19666C31.8427 5.19796 30.1298 5.65904 28.6207 6.53341C24.649 8.83584 21.3524 12.1419 19.0613 16.1202C16.7703 20.0985 15.5654 24.6092 15.5674 29.2001V36.3201L17.4741 35.1334Z" fill="#A996EB"/>
<path d="M33.1807 65.0667C32.3154 65.0697 31.4645 64.8443 30.7141 64.4134L21.3807 59.0801C21.2692 59.0165 21.1714 58.9314 21.0929 58.8299C21.0144 58.7283 20.9568 58.6122 20.9233 58.4883C20.8898 58.3644 20.8812 58.2351 20.8979 58.1078C20.9147 57.9805 20.9564 57.8578 21.0207 57.7467C21.154 57.5268 21.367 57.3666 21.6153 57.2996C21.8636 57.2326 22.1281 57.2637 22.354 57.3867L31.6874 62.72C32.1389 62.9823 32.6519 63.1205 33.1741 63.1205C33.6963 63.1205 34.2092 62.9823 34.6607 62.72L42.9674 57.9201C43.1933 57.7971 43.4579 57.7659 43.7062 57.8329C43.9545 57.9 44.1674 58.0601 44.3007 58.2801C44.3651 58.3911 44.4068 58.5138 44.4235 58.6411C44.4403 58.7684 44.4316 58.8977 44.3981 59.0216C44.3647 59.1456 44.3071 59.2616 44.2285 59.3632C44.15 59.4648 44.0522 59.5498 43.9407 59.6134L35.6207 64.4134C34.8783 64.8404 34.0372 65.0656 33.1807 65.0667Z" fill="#A996EB"/>
<defs>
<linearGradient id="paint0_linear_1205_25653" x1="18.7271" y1="48.3601" x2="12.9137" y2="38.3068" gradientUnits="userSpaceOnUse">
<stop stop-color="#43386B"/>
<stop offset="1" stop-color="#7662BD"/>
</linearGradient>
<linearGradient id="paint1_linear_1205_25653" x1="9.55406" y1="59.5734" x2="9.55406" y2="39.7467" gradientUnits="userSpaceOnUse">
<stop stop-color="#D5C9F1"/>
<stop offset="1" stop-color="#F2EFFA"/>
</linearGradient>
<linearGradient id="paint2_linear_1205_25653" x1="7.2477" y1="56.1734" x2="7.2477" y2="39.6934" gradientUnits="userSpaceOnUse">
<stop stop-color="#A996EB"/>
<stop offset="1" stop-color="#D7D1EB"/>
</linearGradient>
<linearGradient id="paint3_linear_1205_25653" x1="42.2872" y1="40.5734" x2="42.2872" y2="20.7467" gradientUnits="userSpaceOnUse">
<stop stop-color="#D5C9F1"/>
<stop offset="1" stop-color="#F2EFFA"/>
</linearGradient>
<linearGradient id="paint4_linear_1205_25653" x1="44.2743" y1="33.5867" x2="38.4743" y2="23.5334" gradientUnits="userSpaceOnUse">
<stop stop-color="#43386B"/>
<stop offset="1" stop-color="#7662BD"/>
</linearGradient>
<linearGradient id="paint5_linear_1205_25653" x1="30.6208" y1="32.5467" x2="42.7408" y2="32.5467" gradientUnits="userSpaceOnUse">
<stop stop-color="#43386B"/>
<stop offset="1" stop-color="#7662BD"/>
</linearGradient>
<linearGradient id="paint6_linear_1205_25653" x1="23.1811" y1="23.5867" x2="28.4477" y2="14.4667" gradientUnits="userSpaceOnUse">
<stop stop-color="#43386B"/>
<stop offset="1" stop-color="#7662BD"/>
</linearGradient>
</defs>
</svg>
