<svg width="24" height="24" viewBox="0 0 24 24" fill="none" xmlns="http://www.w3.org/2000/svg">
<path d="M4.88477 14.7286V12.2902C4.88477 11.4802 5.51805 10.7537 6.41797 10.7537C7.22624 10.7537 7.95118 11.3883 7.95118 12.2902V14.6368C7.95118 16.2652 6.60129 17.618 4.97643 17.618C3.35156 17.618 2.00167 16.2568 2.00167 14.6368V9.49271C1.91001 4.79959 5.60971 1 10.2927 1C14.9756 1 18.667 4.79959 18.667 9.40085V14.5449C18.667 16.1733 17.3171 17.5261 15.6922 17.5261C14.0674 17.5261 12.7175 16.1733 12.7175 14.5449V12.1984C12.7175 11.3883 13.3507 10.6618 14.2507 10.6618C15.0589 10.6618 15.7839 11.2965 15.7839 12.1984V14.7286M19.0836 12.1984H19.9688C21.0906 12.1984 22 13.1077 22 14.2295V14.2295C22 17.9687 18.9687 21 15.2295 21H14.5006" stroke="#292D32" stroke-width="1.5" stroke-linecap="round" stroke-linejoin="round"/>
<circle cx="12" cy="21" r="2" stroke="#292D32" stroke-width="1.5"/>
</svg>
