<svg width="26" height="24" viewBox="0 0 26 24" fill="none" xmlns="http://www.w3.org/2000/svg">
<rect width="26" height="24" fill="#F5F5F5"/>
<rect width="1728" height="1731" transform="translate(-1120 -507)" fill="white"/>
<g filter="url(#filter0_d_1086_7994)">
<rect x="-1020" y="-104" width="1128" height="526" rx="20" fill="white" shape-rendering="crispEdges"/>
<rect x="-540" y="-80" width="624" height="478" rx="20" fill="white"/>
<g clip-path="url(#clip0_1086_7994)">
<path d="M2.94326 19.2104V7.09837C2.25597 7.08989 1.56872 7.11793 0.884399 7.18236V21.4717C0.884399 21.4717 7.93322 20.6684 13.1471 24C8.81189 19.794 2.94326 19.2104 2.94326 19.2104Z" fill="#873EED"/>
<path d="M8.29504 17.5607V5.39701C6.90875 4.81594 5.46501 4.38282 3.98779 4.10483V18.3963C3.98779 18.3963 10.6748 19.4731 13.7889 23.6511C12.8758 20.9203 8.29504 17.5607 8.29504 17.5607Z" fill="#3F2C61"/>
<path d="M9.34167 2.59514V16.8866C9.34167 16.8866 13.3969 19.794 14.6891 23.6404V10.8801C14.6891 4.48818 9.34167 2.59514 9.34167 2.59514Z" fill="#7D53FB"/>
<path d="M24.5247 18.0259V6.97346C25.7824 6.97346 26 7.08976 26 7.08976V20.5004C26 20.5004 19.5585 19.4688 15.5096 24.0022C18.5226 18.8098 24.5247 18.0259 24.5247 18.0259Z" fill="#3F2C61"/>
<path d="M23.478 2.95049V17.229C23.478 17.229 15.9985 19.794 14.6891 23.6404V10.8801C14.6891 4.48818 23.478 2.95049 23.478 2.95049Z" fill="#873EED"/>
<path d="M15.5097 2.28882e-05L16.6016 1.99859L18.6023 3.09263L16.6016 4.18667L15.5097 6.18523L14.4157 4.18667L12.4171 3.09263L14.4157 1.99859L15.5097 2.28882e-05Z" fill="#EDB83E"/>
</g>
</g>
<defs>
<filter id="filter0_d_1086_7994" x="-1060" y="-143" width="1208" height="606" filterUnits="userSpaceOnUse" color-interpolation-filters="sRGB">
<feFlood flood-opacity="0" result="BackgroundImageFix"/>
<feColorMatrix in="SourceAlpha" type="matrix" values="0 0 0 0 0 0 0 0 0 0 0 0 0 0 0 0 0 0 127 0" result="hardAlpha"/>
<feOffset dy="1"/>
<feGaussianBlur stdDeviation="20"/>
<feComposite in2="hardAlpha" operator="out"/>
<feColorMatrix type="matrix" values="0 0 0 0 0 0 0 0 0 0 0 0 0 0 0 0 0 0 0.12 0"/>
<feBlend mode="normal" in2="BackgroundImageFix" result="effect1_dropShadow_1086_7994"/>
<feBlend mode="normal" in="SourceGraphic" in2="effect1_dropShadow_1086_7994" result="shape"/>
</filter>
<clipPath id="clip0_1086_7994">
<rect width="25.1156" height="24" fill="white" transform="translate(0.884399 2.28882e-05)"/>
</clipPath>
</defs>
</svg>
