<svg width="22" height="22" viewBox="0 0 22 22" fill="none" xmlns="http://www.w3.org/2000/svg">
<rect width="22" height="22" fill="#F5F5F5"/>
<rect width="1728" height="1731" transform="translate(-708 -580)" fill="white"/>
<g filter="url(#filter0_d_1086_7994)">
<rect x="-608" y="-177" width="1128" height="526" rx="20" fill="white" shape-rendering="crispEdges"/>
<rect x="-128" y="-153" width="624" height="478" rx="20" fill="white"/>
<path d="M8 21.0001H14C19 21.0001 21 19.0001 21 14.0001V8.00009C21 3.00009 19 1.00009 14 1.00009H8C3 1.00009 1 3.00009 1 8.00009V14.0001C1 19.0001 3 21.0001 8 21.0001Z" stroke="#6B2AD3" stroke-width="1.5" stroke-linecap="round" stroke-linejoin="round"/>
<path d="M11 14.9966L11 15.0055" stroke="#6B2AD3" stroke-width="2" stroke-linecap="round" stroke-linejoin="round"/>
<path d="M11 10.9956L11 11.0046" stroke="#6B2AD3" stroke-width="2" stroke-linecap="round" stroke-linejoin="round"/>
<path d="M11 6.9946L11 7.00358" stroke="#6B2AD3" stroke-width="2" stroke-linecap="round" stroke-linejoin="round"/>
</g>
<defs>
<filter id="filter0_d_1086_7994" x="-648" y="-216" width="1208" height="606" filterUnits="userSpaceOnUse" color-interpolation-filters="sRGB">
<feFlood flood-opacity="0" result="BackgroundImageFix"/>
<feColorMatrix in="SourceAlpha" type="matrix" values="0 0 0 0 0 0 0 0 0 0 0 0 0 0 0 0 0 0 127 0" result="hardAlpha"/>
<feOffset dy="1"/>
<feGaussianBlur stdDeviation="20"/>
<feComposite in2="hardAlpha" operator="out"/>
<feColorMatrix type="matrix" values="0 0 0 0 0 0 0 0 0 0 0 0 0 0 0 0 0 0 0.12 0"/>
<feBlend mode="normal" in2="BackgroundImageFix" result="effect1_dropShadow_1086_7994"/>
<feBlend mode="normal" in="SourceGraphic" in2="effect1_dropShadow_1086_7994" result="shape"/>
</filter>
</defs>
</svg>
