<svg width="32" height="32" viewBox="0 0 32 32" fill="none" xmlns="http://www.w3.org/2000/svg">
<path d="M22.6133 8.22664C25.2799 10.08 27.1199 13.0266 27.4933 16.4266" stroke="#292D32" stroke-width="1.5" stroke-linecap="round" stroke-linejoin="round"/>
<path d="M4.65332 16.4933C4.99999 13.1066 6.81332 10.16 9.45332 8.2933" stroke="#292D32" stroke-width="1.5" stroke-linecap="round" stroke-linejoin="round"/>
<path d="M10.92 27.92C12.4667 28.7066 14.2267 29.1466 16.08 29.1466C17.8667 29.1466 19.5467 28.7466 21.0534 28.0133" stroke="#292D32" stroke-width="1.5" stroke-linecap="round" stroke-linejoin="round"/>
<path d="M16.08 10.2666C18.1271 10.2666 19.7866 8.6071 19.7866 6.55997C19.7866 4.51283 18.1271 2.8533 16.08 2.8533C14.0328 2.8533 12.3733 4.51283 12.3733 6.55997C12.3733 8.6071 14.0328 10.2666 16.08 10.2666Z" stroke="#292D32" stroke-width="1.5" stroke-linecap="round" stroke-linejoin="round"/>
<path d="M6.43994 26.56C8.48708 26.56 10.1466 24.9004 10.1466 22.8533C10.1466 20.8062 8.48708 19.1466 6.43994 19.1466C4.39281 19.1466 2.73328 20.8062 2.73328 22.8533C2.73328 24.9004 4.39281 26.56 6.43994 26.56Z" stroke="#292D32" stroke-width="1.5" stroke-linecap="round" stroke-linejoin="round"/>
<path d="M25.5599 26.56C27.6071 26.56 29.2666 24.9004 29.2666 22.8533C29.2666 20.8062 27.6071 19.1466 25.5599 19.1466C23.5128 19.1466 21.8533 20.8062 21.8533 22.8533C21.8533 24.9004 23.5128 26.56 25.5599 26.56Z" stroke="#292D32" stroke-width="1.5" stroke-linecap="round" stroke-linejoin="round"/>
</svg>
