<svg width="22" height="18" viewBox="0 0 22 18" fill="none" xmlns="http://www.w3.org/2000/svg">
<path d="M15.4715 0C12.7558 0 10.5518 2.19437 10.493 4.89648C8.09184 4.6085 6.52827 3.71075 5.56913 2.82617C4.50546 1.84519 4.16874 0.973633 4.16874 0.973633C4.11958 0.84977 4.03831 0.741241 3.93329 0.659209C3.82827 0.577177 3.70329 0.524605 3.57121 0.506902C3.43913 0.489198 3.30472 0.507002 3.1818 0.558482C3.05889 0.609962 2.95191 0.69326 2.87186 0.799805C2.87186 0.799805 1.97147 2 1.97147 3.75C1.97147 4.75049 2.28737 5.49078 2.66386 6.11816C2.64999 6.11167 2.55643 6.0791 2.55643 6.0791C2.4369 6.01942 2.30359 5.99275 2.1703 6.00185C2.037 6.01094 1.90856 6.05548 1.79824 6.13085C1.68792 6.20622 1.59974 6.30969 1.54281 6.43056C1.48587 6.55142 1.46226 6.68531 1.4744 6.81836C1.4744 6.81836 1.76308 8.92842 3.74686 10.4707L3.53983 10.5225C3.42745 10.5505 3.32309 10.6042 3.23494 10.6794C3.14679 10.7545 3.07724 10.849 3.03173 10.9555C2.98623 11.0621 2.96602 11.1777 2.97267 11.2933C2.97933 11.409 3.01268 11.5215 3.07011 11.6221C3.07011 11.6221 3.4065 12.1911 4.11112 12.79C4.5289 13.1451 5.14261 13.5116 5.866 13.8506C4.97761 14.1752 3.65288 14.5 1.72147 14.5C1.57735 14.5 1.43627 14.5415 1.31512 14.6196C1.19397 14.6976 1.09787 14.8089 1.03833 14.9402C0.97878 15.0714 0.958307 15.217 0.979357 15.3596C1.00041 15.5022 1.06209 15.6357 1.15702 15.7441C1.15702 15.7441 1.73014 16.3755 2.86308 16.9248C3.99601 17.4741 5.74121 18 8.22147 18C12.5813 18 15.7138 15.9086 17.6687 13.2578C19.6237 10.607 20.4715 7.43056 20.4715 5C20.4715 4.84577 20.4618 4.69372 20.448 4.54297C21.5037 3.5258 21.8998 2.76112 21.9187 2.72363C22.0137 2.53313 21.9783 2.30434 21.8308 2.15234C21.6838 1.99984 21.456 1.9569 21.2625 2.0459L21.1814 2.08301C21.1119 2.11501 21.0424 2.14721 20.9725 2.17871C21.176 1.85421 21.3365 1.50744 21.448 1.14844C21.51 0.950437 21.4431 0.733469 21.2791 0.605469C21.1151 0.477469 20.8892 0.463766 20.7117 0.572266C20.1006 0.94368 19.5148 1.20369 18.9051 1.37793C18.0078 0.526736 16.7999 0 15.4715 0ZM15.4715 1.5C17.4131 1.5 18.9715 3.05841 18.9715 5C18.9715 7.06944 18.1943 10.018 16.4617 12.3672C14.7291 14.7164 12.1116 16.5 8.22147 16.5C6.33887 16.5 5.08657 16.1595 4.14823 15.791C5.13114 15.6384 5.97745 15.4347 6.58573 15.1992C7.64056 14.7909 8.20976 14.3193 8.20975 14.3193C8.31416 14.2297 8.39191 14.1131 8.43449 13.9823C8.47707 13.8515 8.48285 13.7115 8.45119 13.5776C8.41953 13.4437 8.35166 13.3211 8.25499 13.2232C8.15833 13.1253 8.03659 13.0558 7.90311 13.0225C6.54175 12.6821 5.66864 12.1317 5.12089 11.6729L5.90311 11.4775C6.05781 11.4389 6.19618 11.352 6.29814 11.2295C6.4001 11.1069 6.46035 10.955 6.47015 10.7959C6.47994 10.6367 6.43878 10.4786 6.35262 10.3445C6.26646 10.2103 6.1398 10.1071 5.991 10.0498C4.36844 9.42574 3.68709 8.54319 3.33866 7.80371C3.76265 7.89148 4.15742 8 4.72147 8C4.89038 7.99986 5.05429 7.94272 5.18668 7.83783C5.31906 7.73293 5.41217 7.58643 5.45093 7.42203C5.48968 7.25763 5.47182 7.08496 5.40022 6.93198C5.32863 6.77901 5.20749 6.65467 5.05643 6.5791C5.05643 6.5791 3.47147 5.85 3.47147 3.75C3.47147 3.37297 3.5759 3.13418 3.65214 2.84863C3.91373 3.20018 4.12931 3.53929 4.55155 3.92871C5.83889 5.11598 7.96666 6.32658 11.1814 6.49902C11.2832 6.50445 11.3849 6.4891 11.4805 6.45391C11.5761 6.41872 11.6635 6.36443 11.7375 6.29434C11.8114 6.22425 11.8703 6.13984 11.9105 6.04626C11.9507 5.95267 11.9715 5.85187 11.9715 5.75V5C11.9715 3.05841 13.5299 1.5 15.4715 1.5Z" fill="black"/>
</svg>
