<svg width="19" height="18" viewBox="0 0 19 18" fill="none" xmlns="http://www.w3.org/2000/svg">
<path d="M3.22144 0C1.71155 0 0.471436 1.24011 0.471436 2.75V15.25C0.471436 16.7599 1.71155 18 3.22144 18H15.7214C17.2313 18 18.4714 16.7599 18.4714 15.25V2.75C18.4714 1.24011 17.2313 0 15.7214 0H3.22144ZM3.22144 1.5H15.7214C16.4205 1.5 16.9714 2.05089 16.9714 2.75V15.25C16.9714 15.9491 16.4205 16.5 15.7214 16.5H3.22144C2.52232 16.5 1.97144 15.9491 1.97144 15.25V2.75C1.97144 2.05089 2.52232 1.5 3.22144 1.5ZM5.22144 3.5C4.88991 3.5 4.57197 3.6317 4.33755 3.86612C4.10313 4.10054 3.97144 4.41848 3.97144 4.75C3.97144 5.08152 4.10313 5.39946 4.33755 5.63388C4.57197 5.8683 4.88991 6 5.22144 6C5.55296 6 5.8709 5.8683 6.10532 5.63388C6.33974 5.39946 6.47144 5.08152 6.47144 4.75C6.47144 4.41848 6.33974 4.10054 6.10532 3.86612C5.8709 3.6317 5.55296 3.5 5.22144 3.5ZM4.47144 7C4.19494 7 3.97144 7.2235 3.97144 7.5V14C3.97144 14.2765 4.19494 14.5 4.47144 14.5H5.97144C6.24794 14.5 6.47144 14.2765 6.47144 14V7.5C6.47144 7.2235 6.24794 7 5.97144 7H4.47144ZM7.97144 7C7.69494 7 7.47144 7.2235 7.47144 7.5V14C7.47144 14.2765 7.69494 14.5 7.97144 14.5H9.47144C9.74794 14.5 9.97144 14.2765 9.97144 14V10.25C9.97144 9.5605 10.5319 9 11.2214 9C11.9109 9 12.4714 9.5605 12.4714 10.25V14C12.4714 14.2765 12.6949 14.5 12.9714 14.5H14.4714C14.7479 14.5 14.9714 14.2765 14.9714 14V10C14.9714 8.3455 13.6259 7 11.9714 7C11.2024 7 10.5029 7.29301 9.97144 7.77051V7.5C9.97144 7.2235 9.74794 7 9.47144 7H7.97144Z" fill="black"/>
</svg>
