<svg width="21" height="20" viewBox="0 0 21 20" fill="none" xmlns="http://www.w3.org/2000/svg">
<path d="M16.171 2.78694e-08H5.13912C4.54756 -6.57743e-05 3.96178 0.116393 3.41523 0.342728C2.86868 0.569063 2.37207 0.900839 1.95375 1.31911C1.53542 1.73739 1.20359 2.23396 0.977198 2.78049C0.750802 3.32701 0.634277 3.91278 0.634277 4.50434V15.4952C0.634277 16.6899 1.10889 17.8357 1.95371 18.6806C2.79854 19.5254 3.94436 20 5.13912 20H16.1715C17.3661 19.9997 18.5118 19.525 19.3565 18.6802C20.2011 17.8355 20.6757 16.6898 20.6759 15.4952V4.50434C20.6759 3.91278 20.5593 3.32701 20.3329 2.78049C20.1065 2.23396 19.7747 1.73739 19.3564 1.31911C18.9381 0.900839 18.4415 0.569063 17.8949 0.342728C17.3484 0.116393 16.7626 -6.57743e-05 16.171 2.78694e-08ZM6.23139 15.8734C6.14292 16.0245 6.01644 16.1497 5.86454 16.2366C5.71264 16.3235 5.54062 16.3692 5.3656 16.369C5.1882 16.3688 5.01405 16.3214 4.86105 16.2317C4.63188 16.0973 4.46546 15.8774 4.39838 15.6203C4.33129 15.3633 4.36904 15.0901 4.5033 14.8608L4.64911 14.6103C4.91023 14.5263 5.18357 14.4867 5.45778 14.4931H5.46029C5.69598 14.4987 5.92782 14.5541 6.14059 14.6556C6.35336 14.7572 6.54224 14.9026 6.69485 15.0823L6.23139 15.8734ZM11.8641 13.491H4.14156C3.87579 13.491 3.6209 13.3854 3.43298 13.1975C3.24505 13.0096 3.13948 12.7547 3.13948 12.4889C3.13948 12.2231 3.24505 11.9683 3.43298 11.7803C3.6209 11.5924 3.87579 11.4868 4.14156 11.4868H6.4789L9.418 6.47143L8.51062 4.92272C8.44406 4.80918 8.40051 4.68365 8.38247 4.55329C8.36442 4.42293 8.37223 4.29029 8.40545 4.16294C8.43867 4.0356 8.49665 3.91605 8.57608 3.81111C8.65551 3.70618 8.75482 3.61791 8.86836 3.55136C8.98189 3.4848 9.10743 3.44126 9.23779 3.42321C9.36815 3.40517 9.50079 3.41298 9.62814 3.4462C9.75548 3.47942 9.87503 3.5374 9.97997 3.61683C10.0849 3.69625 10.1732 3.79557 10.2397 3.90911L10.5794 4.48881L10.9191 3.90911C10.9857 3.79557 11.0739 3.69625 11.1789 3.61683C11.2838 3.5374 11.4033 3.47942 11.5307 3.4462C11.658 3.41298 11.7907 3.40517 11.921 3.42321C12.0514 3.44126 12.1769 3.4848 12.2905 3.55136C12.404 3.61791 12.5033 3.70618 12.5827 3.81111C12.6622 3.91605 12.7202 4.0356 12.7534 4.16294C12.7866 4.29029 12.7944 4.42293 12.7764 4.55329C12.7583 4.68365 12.7148 4.80918 12.6482 4.92272L8.80173 11.4863H10.8961C11.215 11.6963 11.4808 11.9776 11.6722 12.308C11.8804 12.665 11.9488 13.0865 11.8641 13.491ZM17.1686 13.491H15.8544L16.656 14.8603C16.7903 15.0896 16.828 15.3628 16.761 15.6198C16.6939 15.8769 16.5275 16.0968 16.2983 16.2312C16.1451 16.3213 15.9705 16.3688 15.7927 16.3685C15.6177 16.3687 15.4457 16.323 15.2938 16.2361C15.1419 16.1492 15.0154 16.0239 14.9269 15.8729L11.845 10.612C11.6392 10.2303 11.5361 9.80166 11.5458 9.3681C11.5556 8.93454 11.6779 8.51095 11.9007 8.13889L12.3145 7.45096L14.6814 11.4868H17.1701C17.4359 11.4868 17.6907 11.5924 17.8787 11.7803C18.0666 11.9683 18.1722 12.2231 18.1722 12.4889C18.1722 12.6206 18.1462 12.7511 18.0958 12.8727C18.0453 12.9944 17.9713 13.105 17.8781 13.198C17.7849 13.2911 17.6743 13.3649 17.5525 13.4151C17.4308 13.4654 17.3003 13.4912 17.1686 13.491Z" fill="white"/>
</svg>
