<svg width="18" height="20" viewBox="0 0 18 20" fill="none" xmlns="http://www.w3.org/2000/svg">
<path d="M0.924562 0L10.3466 9.35413L12.93 6.77108L1.5093 0.176643C1.33195 0.0704108 1.13107 0.0097236 0.924562 0ZM0.13577 0.435076C0.0454953 0.597179 -0.0012698 0.779896 2.62228e-05 0.965436V19.1433C-0.000475122 19.2789 0.027231 19.4132 0.0813852 19.5375L9.72136 9.96585L0.13577 0.435076ZM13.7184 7.21965L10.9583 9.96585L13.7184 12.699L17.0902 10.7681C17.5688 10.491 17.6376 10.1394 17.6341 9.95236C17.6289 9.64302 17.4335 9.35413 17.1037 9.17749C16.8166 9.0226 14.6838 7.78046 13.7184 7.21965ZM10.3466 10.578L0.842768 20C1.01448 19.9945 1.18236 19.9478 1.33223 19.8638L9.2319 15.2955L12.9435 13.161L10.3466 10.578Z" fill="white"/>
</svg>
