<svg width="20" height="20" viewBox="0 0 20 20" fill="none" xmlns="http://www.w3.org/2000/svg">
<path d="M19.6637 6.74811C19.2827 5.77236 14.4954 5.31949 14.4954 5.31949C12.8968 -0.0306978 10.5972 -0.0354572 10.2 0.00644899C9.80191 -0.0354572 7.50278 -0.0306978 5.90463 5.31949C5.90463 5.31949 1.11446 5.77236 0.736352 6.74811C0.358244 7.72386 1.54591 20 10.2 20C18.8541 20 20.0404 7.72386 19.6637 6.74811ZM10.1986 5.15043C10.1986 5.15043 8.54519 5.1471 7.90898 5.20615C8.27042 3.91325 8.90473 1.92032 10.1986 1.85985C11.4915 1.9208 12.1258 3.91325 12.4872 5.20615C11.8539 5.1471 10.1986 5.15043 10.1986 5.15043Z" fill="white"/>
</svg>
